<svg width="35" height="35" viewBox="0 0 35 35" fill="inherit" xmlns="http://www.w3.org/2000/svg">
<path d="M8.09376 25.703C9.625 24.6335 11.1441 23.8132 12.651 23.242C14.158 22.6708 15.7743 22.3853 17.5 22.3853C19.2257 22.3853 20.8481 22.6708 22.3672 23.242C23.8863 23.8132 25.4115 24.6335 26.9427 25.703C28.0122 24.3905 28.7717 23.0658 29.2214 21.729C29.671 20.3922 29.8958 18.9825 29.8958 17.4998C29.8958 13.9755 28.7109 11.0285 26.3411 8.65869C23.9714 6.2889 21.0243 5.104 17.5 5.104C13.9757 5.104 11.0287 6.2889 8.65886 8.65869C6.28907 11.0285 5.10417 13.9755 5.10417 17.4998C5.10417 18.9825 5.33507 20.3922 5.79688 21.729C6.25869 23.0658 7.02431 24.3905 8.09376 25.703ZM17.5 18.5936C16.0903 18.5936 14.9054 18.1136 13.9453 17.1535C12.9852 16.1934 12.5052 15.0085 12.5052 13.5988C12.5052 12.1891 12.9852 11.0042 13.9453 10.0441C14.9054 9.08404 16.0903 8.604 17.5 8.604C18.9097 8.604 20.0946 9.08404 21.0547 10.0441C22.0148 11.0042 22.4948 12.1891 22.4948 13.5988C22.4948 15.0085 22.0148 16.1934 21.0547 17.1535C20.0946 18.1136 18.9097 18.5936 17.5 18.5936ZM17.5 32.0832C15.5069 32.0832 13.6233 31.7004 11.849 30.9347C10.0747 30.1691 8.52518 29.124 7.20053 27.7993C5.87587 26.4747 4.83073 24.9252 4.06511 23.1509C3.29948 21.3766 2.91667 19.4929 2.91667 17.4998C2.91667 15.4825 3.29948 13.5927 4.06511 11.8306C4.83073 10.0684 5.87587 8.52501 7.20053 7.20036C8.52518 5.87571 10.0747 4.83057 11.849 4.06494C13.6233 3.29932 15.5069 2.9165 17.5 2.9165C19.5174 2.9165 21.4071 3.29932 23.1693 4.06494C24.9314 4.83057 26.4748 5.87571 27.7995 7.20036C29.1241 8.52501 30.1693 10.0684 30.9349 11.8306C31.7005 13.5927 32.0833 15.4825 32.0833 17.4998C32.0833 19.4929 31.7005 21.3766 30.9349 23.1509C30.1693 24.9252 29.1241 26.4747 27.7995 27.7993C26.4748 29.124 24.9314 30.1691 23.1693 30.9347C21.4071 31.7004 19.5174 32.0832 17.5 32.0832ZM17.5 29.8957C18.8368 29.8957 20.1432 29.7012 21.4193 29.3123C22.6953 28.9234 23.9531 28.2429 25.1927 27.2707C23.9531 26.3957 22.6892 25.7273 21.401 25.2655C20.1129 24.8037 18.8125 24.5728 17.5 24.5728C16.1875 24.5728 14.8872 24.8037 13.599 25.2655C12.3108 25.7273 11.0469 26.3957 9.8073 27.2707C11.0469 28.2429 12.3047 28.9234 13.5807 29.3123C14.8568 29.7012 16.1632 29.8957 17.5 29.8957ZM17.5 16.4061C18.3264 16.4061 19.0009 16.1448 19.5234 15.6222C20.046 15.0997 20.3073 14.4252 20.3073 13.5988C20.3073 12.7724 20.046 12.0979 19.5234 11.5754C19.0009 11.0528 18.3264 10.7915 17.5 10.7915C16.6736 10.7915 15.9991 11.0528 15.4766 11.5754C14.954 12.0979 14.6927 12.7724 14.6927 13.5988C14.6927 14.4252 14.954 15.0997 15.4766 15.6222C15.9991 16.1448 16.6736 16.4061 17.5 16.4061Z"/>
</svg>
