<svg width="51" height="49" viewBox="0 0 51 49" fill="inherit" xmlns="http://www.w3.org/2000/svg">
<path d="M18.475 20.5627C19.7 19.7071 20.9153 19.0509 22.1208 18.5939C23.3264 18.137 24.6194 17.9085 26 17.9085C27.3805 17.9085 28.6785 18.137 29.8937 18.5939C31.109 19.0509 32.3291 19.7071 33.5541 20.5627C34.4097 19.5127 35.0173 18.4529 35.3771 17.3835C35.7368 16.3141 35.9166 15.1863 35.9166 14.0002C35.9166 11.1807 34.9687 8.82308 33.0729 6.92725C31.1771 5.03141 28.8194 4.0835 26 4.0835C23.1805 4.0835 20.8229 5.03141 18.9271 6.92725C17.0312 8.82308 16.0833 11.1807 16.0833 14.0002C16.0833 15.1863 16.268 16.3141 16.6375 17.3835C17.0069 18.4529 17.6194 19.5127 18.475 20.5627ZM26 14.8752C24.8722 14.8752 23.9243 14.4911 23.1562 13.7231C22.3882 12.955 22.0041 12.0071 22.0041 10.8793C22.0041 9.75155 22.3882 8.80363 23.1562 8.03558C23.9243 7.26752 24.8722 6.8835 26 6.8835C27.1278 6.8835 28.0757 7.26752 28.8437 8.03558C29.6118 8.80363 29.9958 9.75155 29.9958 10.8793C29.9958 12.0071 29.6118 12.955 28.8437 13.7231C28.0757 14.4911 27.1278 14.8752 26 14.8752ZM26 25.6668C24.4055 25.6668 22.8986 25.3606 21.4791 24.7481C20.0597 24.1356 18.8201 23.2995 17.7604 22.2397C16.7007 21.18 15.8646 19.9404 15.2521 18.521C14.6396 17.1016 14.3333 15.5946 14.3333 14.0002C14.3333 12.3863 14.6396 10.8745 15.2521 9.46475C15.8646 8.05502 16.7007 6.8203 17.7604 5.76058C18.8201 4.70086 20.0597 3.86475 21.4791 3.25225C22.8986 2.63975 24.4055 2.3335 26 2.3335C27.6139 2.3335 29.1257 2.63975 30.5354 3.25225C31.9451 3.86475 33.1798 4.70086 34.2396 5.76058C35.2993 6.8203 36.1354 8.05502 36.7479 9.46475C37.3604 10.8745 37.6666 12.3863 37.6666 14.0002C37.6666 15.5946 37.3604 17.1016 36.7479 18.521C36.1354 19.9404 35.2993 21.18 34.2396 22.2397C33.1798 23.2995 31.9451 24.1356 30.5354 24.7481C29.1257 25.3606 27.6139 25.6668 26 25.6668ZM26 23.9168C27.0694 23.9168 28.1146 23.7613 29.1354 23.4502C30.1562 23.1391 31.1625 22.5946 32.1541 21.8168C31.1625 21.1168 30.1514 20.5821 29.1208 20.2127C28.0903 19.8432 27.05 19.6585 26 19.6585C24.95 19.6585 23.9097 19.8432 22.8791 20.2127C21.8486 20.5821 20.8375 21.1168 19.8458 21.8168C20.8375 22.5946 21.8437 23.1391 22.8646 23.4502C23.8854 23.7613 24.9305 23.9168 26 23.9168ZM26 13.1252C26.6611 13.1252 27.2007 12.9161 27.6187 12.4981C28.0368 12.08 28.2458 11.5404 28.2458 10.8793C28.2458 10.2182 28.0368 9.67863 27.6187 9.26058C27.2007 8.84252 26.6611 8.6335 26 8.6335C25.3389 8.6335 24.7993 8.84252 24.3812 9.26058C23.9632 9.67863 23.7541 10.2182 23.7541 10.8793C23.7541 11.5404 23.9632 12.08 24.3812 12.4981C24.7993 12.9161 25.3389 13.1252 26 13.1252Z" />
<path d="M2.22615 37.784H4.63515V42.47H2.22615V37.784ZM1.10415 43.372H5.75715V36.882H1.10415V43.372ZM10.0031 39.797H8.45215V35.914H7.31915V45.858H8.45215V40.732H10.0031V39.797ZM17.9113 35.903V45.869H19.0553V35.903H17.9113ZM13.7643 36.64C12.2903 36.64 11.2123 38.004 11.2123 40.138C11.2123 42.294 12.2903 43.647 13.7643 43.647C15.2493 43.647 16.3273 42.294 16.3273 40.138C16.3273 38.004 15.2493 36.64 13.7643 36.64ZM13.7643 37.663C14.6333 37.663 15.2383 38.598 15.2383 40.138C15.2383 41.7 14.6333 42.635 13.7643 42.635C12.9063 42.635 12.3013 41.7 12.3013 40.138C12.3013 38.598 12.9063 37.663 13.7643 37.663ZM22.8384 38.026H23.8394V42.481C23.4984 42.503 23.1684 42.514 22.8384 42.525V38.026ZM24.8734 38.026H25.6104V37.113H21.0894V38.026H21.8044V42.547C21.4744 42.547 21.1664 42.547 20.8914 42.547L21.0234 43.482C22.2774 43.482 24.3234 43.438 25.8744 43.13L25.7974 42.305C25.5114 42.349 25.1924 42.382 24.8734 42.415V38.026ZM26.5124 39.621H25.3354V40.622H26.5124V45.352H27.5794V36.134H26.5124V39.621ZM28.4594 35.914V45.847H29.5484V35.914H28.4594ZM38.1496 35.903V45.869H39.2936V35.903H38.1496ZM34.0026 36.64C32.5286 36.64 31.4506 38.004 31.4506 40.138C31.4506 42.294 32.5286 43.647 34.0026 43.647C35.4876 43.647 36.5656 42.294 36.5656 40.138C36.5656 38.004 35.4876 36.64 34.0026 36.64ZM34.0026 37.663C34.8716 37.663 35.4766 38.598 35.4766 40.138C35.4766 41.7 34.8716 42.635 34.0026 42.635C33.1446 42.635 32.5396 41.7 32.5396 40.138C32.5396 38.598 33.1446 37.663 34.0026 37.663ZM44.9027 37.839H47.1137V36.904H41.5477V37.839H43.7587V38.785C43.7587 40.49 42.7357 42.338 41.1957 43.053L41.8447 43.955C43.0107 43.394 43.9017 42.217 44.3417 40.831C44.8037 42.118 45.6947 43.196 46.8497 43.702L47.4767 42.811C45.9257 42.151 44.9027 40.435 44.9027 38.785V37.839ZM48.2687 35.914V45.847H49.4127V35.914H48.2687Z"/>
</svg>
