<svg width="94" height="94" viewBox="0 0 94 94" fill="none" xmlns="http://www.w3.org/2000/svg">
<mask id="mask0_143_9361" style="mask-type:alpha" maskUnits="userSpaceOnUse" x="0" y="0" width="94" height="94">
<rect x="46.9854" width="66.4473" height="66.4473" transform="rotate(45 46.9854 0)" fill="#EEEEEF"/>
</mask>
<g mask="url(#mask0_143_9361)">
<path d="M30.2468 46.9854C30.2468 47.7685 30.5326 48.4459 31.1043 49.0175C31.6747 49.5879 32.3514 49.873 33.1345 49.873L44.0977 49.873L44.0977 60.9342C44.0977 61.7173 44.3835 62.3777 44.9552 62.9154C45.5255 63.4544 46.2023 63.7239 46.9854 63.7239C47.7684 63.7239 48.4458 63.4381 49.0175 62.8664C49.5878 62.2961 49.873 61.6194 49.873 60.8363L49.873 49.873L60.9341 49.873C61.7172 49.873 62.3776 49.5872 62.9153 49.0156C63.4544 48.4452 63.7239 47.7685 63.7239 46.9854C63.7239 46.2023 63.4387 45.5256 62.8684 44.9552C62.2967 44.3836 61.6193 44.0978 60.8362 44.0978L49.873 44.0978V33.0366C49.873 32.2535 49.5878 31.5925 49.0175 31.0535C48.4458 30.5157 47.7684 30.2469 46.9854 30.2469C46.2023 30.2469 45.5255 30.532 44.9552 31.1024C44.3835 31.674 44.0977 32.3514 44.0977 33.1345L44.0977 44.0978H33.0366C32.2535 44.0978 31.5931 44.3836 31.0554 44.9552C30.5163 45.5256 30.2468 46.2023 30.2468 46.9854ZM27.0166 66.9542C24.2431 64.1807 22.1627 61.0562 20.7754 57.5806C19.3893 54.1063 18.6963 50.5746 18.6963 46.9854C18.6963 43.3962 19.3893 39.8645 20.7754 36.3902C22.1627 32.9146 24.2431 29.7901 27.0166 27.0166C29.79 24.2432 32.9145 22.1628 36.3902 20.7754C39.8645 19.3893 43.3962 18.6963 46.9854 18.6963C50.5745 18.6963 54.1062 19.3893 57.5805 20.7754C61.0562 22.1628 64.1807 24.2432 66.9541 27.0166C69.7276 29.7901 71.808 32.9146 73.1953 36.3902C74.5814 39.8645 75.2744 43.3962 75.2744 46.9854C75.2744 50.5746 74.5814 54.1063 73.1953 57.5806C71.808 61.0562 69.7276 64.1807 66.9541 66.9542C64.1807 69.7276 61.0562 71.808 57.5805 73.1954C54.1062 74.5815 50.5745 75.2745 46.9854 75.2745C43.3962 75.2745 39.8645 74.5815 36.3902 73.1954C32.9145 71.808 29.79 69.7276 27.0166 66.9542Z" fill="#393939"/>
</g>
<mask id="mask1_143_9361" style="mask-type:alpha" maskUnits="userSpaceOnUse" x="0" y="0" width="94" height="94">
<rect x="46.9854" width="66.4473" height="66.4473" transform="rotate(45 46.9854 0)" fill="#7F7F80"/>
</mask>
<g mask="url(#mask1_143_9361)">
<path d="M30.2469 46.9855C30.2469 47.7686 30.5327 48.446 31.1043 49.0177C31.6747 49.588 32.3514 49.8732 33.1345 49.8732L44.0977 49.8732L44.0977 60.9343C44.0977 61.7174 44.3836 62.3778 44.9552 62.9155C45.5256 63.4546 46.2023 63.7241 46.9854 63.7241C47.7685 63.7241 48.4458 63.4383 49.0175 62.8666C49.5878 62.2962 49.873 61.6195 49.873 60.8364L49.873 49.8732L60.9342 49.8732C61.7172 49.8732 62.3776 49.5874 62.9154 49.0157C63.4544 48.4454 63.7239 47.7686 63.7239 46.9856C63.7239 46.2025 63.4387 45.5257 62.8684 44.9554C62.2967 44.3837 61.6194 44.0979 60.8363 44.0979L49.873 44.0979L49.873 33.0368C49.873 32.2537 49.5878 31.5926 49.0175 31.0536C48.4458 30.5159 47.7685 30.247 46.9854 30.247C46.2023 30.247 45.5256 30.5322 44.9552 31.1025C44.3836 31.6742 44.0977 32.3516 44.0977 33.1347L44.0977 44.0979L33.0366 44.0979C32.2535 44.0979 31.5931 44.3837 31.0554 44.9554C30.5164 45.5257 30.2469 46.2025 30.2469 46.9855Z" fill="#CDCDCD"/>
</g>
</svg>
