<svg width="19" height="19" viewBox="0 0 19 19" fill="none" xmlns="http://www.w3.org/2000/svg">
<mask id="mask0_70_2412" style="mask-type:alpha" maskUnits="userSpaceOnUse" x="0" y="0" width="19" height="19">
<rect width="19" height="19" fill="#D9D9D9"/>
</mask>
<g mask="url(#mask0_70_2412)">
<path d="M9.50016 15.0418C9.27586 15.0418 9.08797 14.9658 8.9365 14.8138C8.7845 14.6624 8.7085 14.4745 8.7085 14.2502V10.2918H4.75016C4.52586 10.2918 4.3377 10.2158 4.1857 10.0638C4.03423 9.91236 3.9585 9.72447 3.9585 9.50016C3.9585 9.27586 4.03423 9.0877 4.1857 8.9357C4.3377 8.78423 4.52586 8.7085 4.75016 8.7085H8.7085V4.75016C8.7085 4.52586 8.7845 4.3377 8.9365 4.1857C9.08797 4.03423 9.27586 3.9585 9.50016 3.9585C9.72447 3.9585 9.91262 4.03423 10.0646 4.1857C10.2161 4.3377 10.2918 4.52586 10.2918 4.75016V8.7085H14.2502C14.4745 8.7085 14.6624 8.78423 14.8138 8.9357C14.9658 9.0877 15.0418 9.27586 15.0418 9.50016C15.0418 9.72447 14.9658 9.91236 14.8138 10.0638C14.6624 10.2158 14.4745 10.2918 14.2502 10.2918H10.2918V14.2502C10.2918 14.4745 10.2161 14.6624 10.0646 14.8138C9.91262 14.9658 9.72447 15.0418 9.50016 15.0418Z" fill="#3897F0"/>
</g>
</svg>
