<svg width="27" height="27" viewBox="0 0 27 27" fill="none" xmlns="http://www.w3.org/2000/svg">
<mask id="mask0_47_3170" style="mask-type:alpha" maskUnits="userSpaceOnUse" x="0" y="0" width="27" height="27">
<rect x="26.0728" width="26.0728" height="26.0728" transform="rotate(90 26.0728 0)" fill="#D9D9D9"/>
</mask>
<g mask="url(#mask0_47_3170)">
<path d="M3.04183 10.0218L12.1673 0.869181C12.294 0.742439 12.4298 0.651908 12.5747 0.59759C12.7195 0.543272 12.8734 0.516113 13.0364 0.516113C13.1993 0.516113 13.3532 0.543272 13.4981 0.59759C13.6429 0.651908 13.7787 0.742439 13.9055 0.869181L23.0581 10.0218C23.3478 10.3115 23.4926 10.6646 23.4926 11.081C23.4926 11.4974 23.3387 11.8505 23.0309 12.1402C22.7412 12.448 22.3929 12.6019 21.9859 12.6019C21.5781 12.6019 21.2203 12.448 20.9125 12.1402L13.0364 4.26407L5.16024 12.1402C4.87054 12.4299 4.52218 12.5748 4.11516 12.5748C3.70741 12.5748 3.34963 12.4299 3.04183 12.1402C2.75213 11.8324 2.60728 11.475 2.60728 11.068C2.60728 10.6602 2.75213 10.3115 3.04183 10.0218Z" fill="#393939"/>
</g>
</svg>
