<svg width="27" height="27" viewBox="0 0 27 27" fill="none" xmlns="http://www.w3.org/2000/svg">
<mask id="mask0_47_3169" style="mask-type:alpha" maskUnits="userSpaceOnUse" x="0" y="0" width="27" height="27">
<rect y="26.0728" width="26.0728" height="26.0728" transform="rotate(-90 0 26.0728)" fill="#D9D9D9"/>
</mask>
<g mask="url(#mask0_47_3169)">
<path d="M23.0309 16.0509L13.9055 25.2036C13.7787 25.3303 13.6429 25.4208 13.4981 25.4752C13.3532 25.5295 13.1993 25.5566 13.0364 25.5566C12.8734 25.5566 12.7195 25.5295 12.5747 25.4752C12.4298 25.4208 12.294 25.3303 12.1673 25.2036L3.01465 16.0509C2.72496 15.7613 2.58011 15.4082 2.58011 14.9917C2.58011 14.5753 2.73401 14.2222 3.04181 13.9325C3.33151 13.6247 3.67987 13.4708 4.0869 13.4708C4.49465 13.4708 4.85242 13.6247 5.16023 13.9325L13.0364 21.8087L20.9125 13.9325C21.2022 13.6428 21.5506 13.498 21.9576 13.498C22.3653 13.498 22.7231 13.6428 23.0309 13.9325C23.3206 14.2403 23.4655 14.5978 23.4655 15.0048C23.4655 15.4125 23.3206 15.7613 23.0309 16.0509Z" fill="#393939"/>
</g>
</svg>
