<svg width="20" height="20" viewBox="0 0 20 20" fill="none" xmlns="http://www.w3.org/2000/svg">
<mask id="mask0_117_1937" style="mask-type:alpha" maskUnits="userSpaceOnUse" x="0" y="0" width="20" height="20">
<rect y="20" width="20" height="20" transform="rotate(-90 0 20)" fill="#D9D9D9"/>
</mask>
<g mask="url(#mask0_117_1937)">
<path d="M17.4375 12.2502L10.5208 19.1877C10.4513 19.2571 10.3713 19.3091 10.2808 19.3435C10.1908 19.3785 10.0972 19.396 9.99996 19.396C9.90274 19.396 9.80885 19.3785 9.71829 19.3435C9.62829 19.3091 9.54857 19.2571 9.47912 19.1877L2.54163 12.2502C2.37496 12.0835 2.29163 11.8891 2.29163 11.6668C2.29163 11.4446 2.3819 11.2432 2.56246 11.0627C2.71524 10.896 2.90607 10.8127 3.13496 10.8127C3.3644 10.8127 3.56246 10.896 3.72913 11.0627L9.99996 17.3543L16.2916 11.0627C16.4444 10.9099 16.6319 10.8335 16.8541 10.8335C17.0763 10.8335 17.2708 10.9168 17.4375 11.0835C17.6041 11.2502 17.6875 11.4446 17.6875 11.6668C17.6875 11.8891 17.6041 12.0835 17.4375 12.2502Z" fill="#393939"/>
</g>
</svg>
