<svg width="27" height="27" viewBox="0 0 27 27" fill="none" xmlns="http://www.w3.org/2000/svg">
<mask id="mask0_27_3383" style="mask-type:alpha" maskUnits="userSpaceOnUse" x="0" y="0" width="27" height="27">
<rect width="26.0728" height="26.0728" fill="#D9D9D9"/>
</mask>
<g mask="url(#mask0_27_3383)">
<path d="M10.0217 23.0309L0.869121 13.9054C0.742378 13.7787 0.651848 13.6429 0.59753 13.498C0.543211 13.3532 0.516052 13.1993 0.516052 13.0363C0.516052 12.8734 0.543211 12.7195 0.59753 12.5746C0.651848 12.4298 0.742378 12.294 0.869121 12.1672L10.0217 3.01462C10.3114 2.72493 10.6645 2.58008 11.0809 2.58008C11.4974 2.58008 11.8505 2.73398 12.1402 3.04178C12.448 3.33148 12.6019 3.67984 12.6019 4.08687C12.6019 4.49462 12.448 4.85239 12.1402 5.16019L4.26401 13.0363L12.1402 20.9125C12.4299 21.2022 12.5747 21.5505 12.5747 21.9576C12.5747 22.3653 12.4299 22.7231 12.1402 23.0309C11.8324 23.3206 11.4749 23.4654 11.0679 23.4654C10.6602 23.4654 10.3114 23.3206 10.0217 23.0309Z" fill="#101010"/>
</g>
</svg>
