<svg width="20" height="20" viewBox="0 0 20 20" fill="none" xmlns="http://www.w3.org/2000/svg">
<mask id="mask0_117_1938" style="mask-type:alpha" maskUnits="userSpaceOnUse" x="0" y="0" width="20" height="20">
<rect x="20" width="20" height="20" transform="rotate(90 20 0)" fill="#D9D9D9"/>
</mask>
<g mask="url(#mask0_117_1938)">
<path d="M2.56254 7.74984L9.47921 0.812337C9.54865 0.742892 9.62865 0.690948 9.71921 0.656504C9.80921 0.621504 9.90282 0.604004 10 0.604004C10.0973 0.604004 10.1912 0.621504 10.2817 0.656504C10.3717 0.690948 10.4514 0.742892 10.5209 0.812337L17.4584 7.74984C17.625 7.9165 17.7084 8.11095 17.7084 8.33317C17.7084 8.55539 17.6181 8.75678 17.4375 8.93734C17.2848 9.104 17.0939 9.18734 16.865 9.18734C16.6356 9.18734 16.4375 9.104 16.2709 8.93734L10 2.64567L3.70838 8.93734C3.5556 9.09011 3.3681 9.1665 3.14588 9.1665C2.92365 9.1665 2.72921 9.08317 2.56254 8.9165C2.39588 8.74984 2.31254 8.55539 2.31254 8.33317C2.31254 8.11095 2.39588 7.9165 2.56254 7.74984Z" fill="#393939"/>
</g>
</svg>
