<svg width="20" height="20" viewBox="0 0 20 20" fill="none" xmlns="http://www.w3.org/2000/svg">
<mask id="mask0_117_3167" style="mask-type:alpha" maskUnits="userSpaceOnUse" x="0" y="0" width="20" height="20">
<rect width="20" height="20" fill="#D9D9D9"/>
</mask>
<g mask="url(#mask0_117_3167)">
<path d="M7.74996 17.4373L0.812459 10.5207C0.743015 10.4512 0.69107 10.3712 0.656626 10.2807C0.621626 10.1907 0.604126 10.0971 0.604126 9.99984C0.604126 9.90261 0.621626 9.80872 0.656626 9.71817C0.69107 9.62817 0.743015 9.54845 0.812459 9.479L7.74996 2.5415C7.91663 2.37484 8.11107 2.2915 8.33329 2.2915C8.55551 2.2915 8.7569 2.38178 8.93746 2.56234C9.10413 2.71511 9.18746 2.90595 9.18746 3.13484C9.18746 3.36428 9.10413 3.56234 8.93746 3.729L2.64579 9.99984L8.93746 16.2915C9.09024 16.4443 9.16663 16.6318 9.16663 16.854C9.16663 17.0762 9.08329 17.2707 8.91663 17.4373C8.74996 17.604 8.55551 17.6873 8.33329 17.6873C8.11107 17.6873 7.91663 17.604 7.74996 17.4373Z" fill="#393939"/>
</g>
</svg>
