<svg width="24" height="24" viewBox="0 0 24 24" fill="none" xmlns="http://www.w3.org/2000/svg">
<mask id="mask0_729_1549" style="mask-type:alpha" maskUnits="userSpaceOnUse" x="0" y="0" width="24" height="24">
<rect width="24" height="24" fill="#D9D9D9"/>
</mask>
<g mask="url(#mask0_729_1549)">
<path d="M12 21C10.75 21 9.57933 20.7627 8.488 20.288C7.396 19.8127 6.446 19.1707 5.638 18.362C4.82933 17.554 4.18733 16.604 3.712 15.512C3.23733 14.4207 3 13.25 3 12C3 10.75 3.23733 9.579 3.712 8.487C4.18733 7.39567 4.82933 6.44567 5.638 5.637C6.446 4.829 7.396 4.18733 8.488 3.712C9.57933 3.23733 10.75 3 12 3C13.25 3 14.421 3.23733 15.513 3.712C16.6043 4.18733 17.5543 4.829 18.363 5.637C19.171 6.44567 19.8127 7.39567 20.288 8.487C20.7627 9.579 21 10.75 21 12C21 13.25 20.7627 14.4207 20.288 15.512C19.8127 16.604 19.171 17.554 18.363 18.362C17.5543 19.1707 16.6043 19.8127 15.513 20.288C14.421 20.7627 13.25 21 12 21ZM12 20C14.2333 20 16.125 19.225 17.675 17.675C19.225 16.125 20 14.2333 20 12C20 11.0167 19.825 10.075 19.475 9.175C19.125 8.275 18.6333 7.45833 18 6.725L6.725 18C7.45833 18.65 8.275 19.146 9.175 19.488C10.075 19.8293 11.0167 20 12 20ZM6 17.275L17.275 6C16.5583 5.33333 15.746 4.83333 14.838 4.5C13.9293 4.16667 12.9833 4 12 4C9.76667 4 7.875 4.775 6.325 6.325C4.775 7.875 4 9.76667 4 12C4 12.9833 4.171 13.925 4.513 14.825C4.85433 15.725 5.35 16.5417 6 17.275Z" fill="white"/>
</g>
</svg>
