<svg width="98" height="98" viewBox="0 0 98 98" fill="none" xmlns="http://www.w3.org/2000/svg">
<g filter="url(#filter0_d_133_5690)">
<mask id="mask0_133_5690" style="mask-type:alpha" maskUnits="userSpaceOnUse" x="16" y="12" width="67" height="67">
<rect x="82.4473" y="12" width="66.4473" height="66.4473" transform="rotate(90 82.4473 12)" fill="#EEEEEF"/>
</mask>
<g mask="url(#mask0_133_5690)">
<path d="M37.3876 33.3876C36.8339 33.9413 36.557 34.6224 36.557 35.4308C36.557 36.2374 36.8339 36.9176 37.3876 37.4713L45.1398 45.2235L37.3184 53.0449C36.7646 53.5986 36.4998 54.2677 36.5238 55.0522C36.5459 55.8366 36.8339 56.5057 37.3876 57.0594C37.9413 57.6132 38.6224 57.89 39.4308 57.89C40.2374 57.89 40.9176 57.6132 41.4713 57.0594L49.2235 49.3073L57.0449 57.1287C57.5986 57.6824 58.2677 57.9472 59.0522 57.9233C59.8366 57.9011 60.5057 57.6132 61.0594 57.0594C61.6132 56.5057 61.89 55.8255 61.89 55.019C61.89 54.2105 61.6132 53.5294 61.0594 52.9757L53.3073 45.2235L61.1287 37.4021C61.6824 36.8484 61.9482 36.1793 61.926 35.3948C61.902 34.6104 61.6132 33.9413 61.0594 33.3876C60.5057 32.8339 59.8256 32.557 59.019 32.557C58.2105 32.557 57.5294 32.8339 56.9757 33.3876L49.2235 41.1398L41.4021 33.3184C40.8484 32.7646 40.1793 32.4998 39.3948 32.5238C38.6104 32.5459 37.9413 32.8339 37.3876 33.3876ZM20.9834 45.2235C20.9834 41.3013 21.7217 37.6208 23.1983 34.1822C24.6749 30.7454 26.6822 27.758 29.2201 25.2201C31.758 22.6822 34.7454 20.6749 38.1822 19.1983C41.6208 17.7217 45.3013 16.9834 49.2235 16.9834C53.1457 16.9834 56.8262 17.7217 60.2648 19.1983C63.7016 20.6749 66.689 22.6822 69.2269 25.2201C71.7648 27.758 73.7721 30.7454 75.2487 34.1822C76.7253 37.6208 77.4636 41.3013 77.4636 45.2235C77.4636 49.1457 76.7253 52.8262 75.2487 56.2648C73.7721 59.7016 71.7648 62.689 69.2269 65.2269C66.689 67.7648 63.7016 69.7721 60.2648 71.2487C56.8262 72.7253 53.1457 73.4636 49.2235 73.4636C45.3013 73.4636 41.6208 72.7253 38.1822 71.2487C34.7454 69.7721 31.758 67.7648 29.2201 65.2269C26.6822 62.689 24.6749 59.7016 23.1983 56.2648C21.7217 52.8262 20.9834 49.1457 20.9834 45.2235Z" fill="#393939"/>
</g>
<mask id="mask1_133_5690" style="mask-type:alpha" maskUnits="userSpaceOnUse" x="16" y="12" width="67" height="67">
<rect x="82.4473" y="12" width="66.4473" height="66.4473" transform="rotate(90 82.4473 12)" fill="#7F7F80"/>
</mask>
<g mask="url(#mask1_133_5690)">
<path d="M37.3878 33.3878C36.834 33.9415 36.5572 34.6226 36.5572 35.431C36.5572 36.2376 36.834 36.9178 37.3878 37.4715L45.14 45.2237L37.3186 53.0451C36.7648 53.5988 36.5 54.2679 36.524 55.0524C36.5461 55.8368 36.834 56.5059 37.3878 57.0596C37.9415 57.6134 38.6226 57.8902 39.431 57.8902C40.2376 57.8902 40.9178 57.6134 41.4715 57.0596L49.2237 49.3074L57.0451 57.1288C57.5988 57.6826 58.2679 57.9474 59.0524 57.9234C59.8368 57.9013 60.5059 57.6134 61.0596 57.0596C61.6134 56.5059 61.8902 55.8257 61.8902 55.0191C61.8902 54.2107 61.6134 53.5296 61.0596 52.9759L53.3074 45.2237L61.1288 37.4023C61.6826 36.8486 61.9484 36.1795 61.9262 35.395C61.9022 34.6106 61.6134 33.9415 61.0596 33.3878C60.5059 32.834 59.8257 32.5572 59.0191 32.5572C58.2107 32.5572 57.5296 32.834 56.9759 33.3878L49.2237 41.14L41.4023 33.3186C40.8486 32.7648 40.1795 32.5 39.395 32.524C38.6106 32.5461 37.9415 32.834 37.3878 33.3878Z" fill="#CDCDCD"/>
</g>
</g>
<defs>
<filter id="filter0_d_133_5690" x="-4" y="-4" width="106.447" height="106.447" filterUnits="userSpaceOnUse" color-interpolation-filters="sRGB">
<feFlood flood-opacity="0" result="BackgroundImageFix"/>
<feColorMatrix in="SourceAlpha" type="matrix" values="0 0 0 0 0 0 0 0 0 0 0 0 0 0 0 0 0 0 127 0" result="hardAlpha"/>
<feOffset dy="4"/>
<feGaussianBlur stdDeviation="10"/>
<feComposite in2="hardAlpha" operator="out"/>
<feColorMatrix type="matrix" values="0 0 0 0 0 0 0 0 0 0 0 0 0 0 0 0 0 0 0.36 0"/>
<feBlend mode="normal" in2="BackgroundImageFix" result="effect1_dropShadow_133_5690"/>
<feBlend mode="normal" in="SourceGraphic" in2="effect1_dropShadow_133_5690" result="shape"/>
</filter>
</defs>
</svg>
