<svg width="32" height="32" viewBox="0 0 32 32" fill="none" xmlns="http://www.w3.org/2000/svg">
<rect x="5" y="5" width="20" height="20" rx="10" fill="#CDCDCD"/>
<mask id="mask0_133_1745" style="mask-type:alpha" maskUnits="userSpaceOnUse" x="0" y="0" width="32" height="32">
<rect x="16" width="22" height="22" transform="rotate(45 16 0)" fill="#D9D9D9"/>
</mask>
<g mask="url(#mask0_133_1745)">
<path d="M11.5358 18.6066C11.3927 18.4635 11.3213 18.2951 11.3216 18.1015C11.3213 17.9079 11.3927 17.7396 11.5358 17.5964L14.0611 15.0711L11.5358 12.5457C11.3927 12.4026 11.3211 12.2341 11.3211 12.0401C11.3211 11.8468 11.3927 11.6786 11.5358 11.5355C11.6789 11.3924 11.8472 11.3207 12.0408 11.3204C12.2344 11.3207 12.4028 11.3924 12.5459 11.5355L15.0713 14.0609L17.5967 11.5355C17.7398 11.3924 17.9083 11.3209 18.1023 11.3209C18.2955 11.3209 18.4637 11.3924 18.6068 11.5355C18.7499 11.6786 18.8216 11.847 18.822 12.0406C18.8216 12.2342 18.7499 12.4026 18.6068 12.5457L16.0814 15.0711L18.6068 17.5964C18.7499 17.7396 18.8215 17.9077 18.8215 18.101C18.8215 18.295 18.7499 18.4635 18.6068 18.6066C18.4637 18.7497 18.2954 18.8211 18.1017 18.8208C17.9081 18.8211 17.7398 18.7497 17.5967 18.6066L15.0713 16.0812L12.5459 18.6066C12.4028 18.7497 12.2346 18.8213 12.0413 18.8213C11.8474 18.8213 11.6789 18.7497 11.5358 18.6066Z" fill="#393939"/>
</g>
</svg>
