<svg width="24" height="24" viewBox="0 0 24 24" fill="none" xmlns="http://www.w3.org/2000/svg">
<mask id="mask0_729_1165" style="mask-type:alpha" maskUnits="userSpaceOnUse" x="0" y="0" width="24" height="24">
<rect width="24" height="24" fill="#D9D9D9"/>
</mask>
<g mask="url(#mask0_729_1165)">
<path d="M8.05 15.95C8.15 16.0667 8.26667 16.125 8.4 16.125C8.53333 16.125 8.65 16.0667 8.75 15.95L12 12.7L15.275 15.975C15.3583 16.075 15.471 16.121 15.613 16.113C15.7543 16.1043 15.8667 16.05 15.95 15.95C16.0667 15.85 16.125 15.7333 16.125 15.6C16.125 15.4667 16.0667 15.35 15.95 15.25L12.7 12L15.975 8.725C16.075 8.64167 16.121 8.529 16.113 8.387C16.1043 8.24567 16.05 8.13333 15.95 8.05C15.85 7.93333 15.7333 7.875 15.6 7.875C15.4667 7.875 15.35 7.93333 15.25 8.05L12 11.3L8.725 8.025C8.64167 7.925 8.529 7.879 8.387 7.887C8.24567 7.89567 8.13333 7.95 8.05 8.05C7.93333 8.15 7.875 8.26667 7.875 8.4C7.875 8.53333 7.93333 8.65 8.05 8.75L11.3 12L8.025 15.275C7.925 15.3583 7.87933 15.471 7.888 15.613C7.896 15.7543 7.95 15.8667 8.05 15.95ZM12 21C10.75 21 9.575 20.7667 8.475 20.3C7.375 19.8333 6.421 19.196 5.613 18.388C4.80433 17.5793 4.16667 16.625 3.7 15.525C3.23333 14.425 3 13.25 3 12C3 10.75 3.23333 9.575 3.7 8.475C4.16667 7.375 4.80433 6.42067 5.613 5.612C6.421 4.804 7.375 4.16667 8.475 3.7C9.575 3.23333 10.75 3 12 3C13.25 3 14.425 3.23333 15.525 3.7C16.625 4.16667 17.5793 4.804 18.388 5.612C19.196 6.42067 19.8333 7.375 20.3 8.475C20.7667 9.575 21 10.75 21 12C21 13.25 20.7667 14.425 20.3 15.525C19.8333 16.625 19.196 17.5793 18.388 18.388C17.5793 19.196 16.625 19.8333 15.525 20.3C14.425 20.7667 13.25 21 12 21Z" fill="#F3F3F3"/>
</g>
</svg>
