<svg width="24" height="24" viewBox="0 0 24 24" fill="none" xmlns="http://www.w3.org/2000/svg">
<mask id="mask0_141_7291" style="mask-type:alpha" maskUnits="userSpaceOnUse" x="0" y="0" width="24" height="24">
<rect width="24" height="24" fill="#EEEEEF"/>
</mask>
<g mask="url(#mask0_141_7291)">
<path d="M7.7248 16.275C7.9248 16.475 8.1708 16.575 8.4628 16.575C8.75414 16.575 8.9998 16.475 9.1998 16.275L11.9998 13.475L14.8248 16.3C15.0248 16.5 15.2665 16.5957 15.5498 16.587C15.8331 16.579 16.0748 16.475 16.2748 16.275C16.4748 16.075 16.5748 15.829 16.5748 15.537C16.5748 15.2457 16.4748 15 16.2748 14.8L13.4748 12L16.2998 9.17499C16.4998 8.97499 16.5955 8.73332 16.5868 8.44999C16.5788 8.16665 16.4748 7.92499 16.2748 7.72499C16.0748 7.52499 15.8291 7.42499 15.5378 7.42499C15.2458 7.42499 14.9998 7.52499 14.7998 7.72499L11.9998 10.525L9.1748 7.69999C8.9748 7.49999 8.73314 7.40399 8.4498 7.41199C8.16647 7.42065 7.9248 7.52499 7.7248 7.72499C7.5248 7.92499 7.4248 8.17065 7.4248 8.46199C7.4248 8.75399 7.5248 8.99999 7.7248 9.19999L10.5248 12L7.6998 14.825C7.4998 15.025 7.40414 15.2667 7.4128 15.55C7.4208 15.8333 7.5248 16.075 7.7248 16.275ZM11.9998 22.2C10.5831 22.2 9.2538 21.9333 8.0118 21.4C6.77047 20.8667 5.69147 20.1417 4.7748 19.225C3.85814 18.3083 3.13314 17.2293 2.5998 15.988C2.06647 14.746 1.7998 13.4167 1.7998 12C1.7998 10.5833 2.06647 9.25399 2.5998 8.01199C3.13314 6.77065 3.85814 5.69165 4.7748 4.77499C5.69147 3.85832 6.77047 3.13332 8.0118 2.59999C9.2538 2.06665 10.5831 1.79999 11.9998 1.79999C13.4165 1.79999 14.7458 2.06665 15.9878 2.59999C17.2291 3.13332 18.3081 3.85832 19.2248 4.77499C20.1415 5.69165 20.8665 6.77065 21.3998 8.01199C21.9331 9.25399 22.1998 10.5833 22.1998 12C22.1998 13.4167 21.9331 14.746 21.3998 15.988C20.8665 17.2293 20.1415 18.3083 19.2248 19.225C18.3081 20.1417 17.2291 20.8667 15.9878 21.4C14.7458 21.9333 13.4165 22.2 11.9998 22.2Z" fill="#EEEEEF"/>
</g>
<mask id="mask1_141_7291" style="mask-type:alpha" maskUnits="userSpaceOnUse" x="0" y="0" width="24" height="24">
<rect width="24" height="24" fill="#7F7F80"/>
</mask>
<g mask="url(#mask1_141_7291)">
<path d="M7.72514 16.275C7.92514 16.475 8.17114 16.575 8.46314 16.575C8.75447 16.575 9.00014 16.475 9.20014 16.275L12.0001 13.475L14.8251 16.3C15.0251 16.5 15.2668 16.5957 15.5501 16.587C15.8335 16.579 16.0751 16.475 16.2751 16.275C16.4751 16.075 16.5751 15.829 16.5751 15.537C16.5751 15.2457 16.4751 15 16.2751 14.8L13.4751 12L16.3001 9.17502C16.5001 8.97502 16.5958 8.73335 16.5871 8.45002C16.5791 8.16669 16.4751 7.92502 16.2751 7.72502C16.0751 7.52502 15.8295 7.42502 15.5381 7.42502C15.2461 7.42502 15.0001 7.52502 14.8001 7.72502L12.0001 10.525L9.17514 7.70002C8.97514 7.50002 8.73347 7.40402 8.45014 7.41202C8.1668 7.42069 7.92514 7.52502 7.72514 7.72502C7.52514 7.92502 7.42514 8.17069 7.42514 8.46202C7.42514 8.75402 7.52514 9.00002 7.72514 9.20002L10.5251 12L7.70014 14.825C7.50014 15.025 7.40447 15.2667 7.41314 15.55C7.42114 15.8334 7.52514 16.075 7.72514 16.275Z" fill="#7F7F80"/>
</g>
</svg>
