<svg width="24" height="24" viewBox="0 0 24 24" fill="none" xmlns="http://www.w3.org/2000/svg">
<mask id="mask0_729_1158" style="mask-type:alpha" maskUnits="userSpaceOnUse" x="0" y="0" width="24" height="24">
<rect width="24" height="24" fill="#D9D9D9"/>
</mask>
<g mask="url(#mask0_729_1158)">
<path d="M9.5499 16.975C9.4499 16.975 9.3539 16.9584 9.2619 16.925C9.17057 16.8917 9.0749 16.8334 8.9749 16.75L4.9249 12.7C4.8249 12.5834 4.7749 12.4624 4.7749 12.337C4.7749 12.2124 4.83324 12.0917 4.9499 11.975C5.0499 11.875 5.16657 11.825 5.2999 11.825C5.43324 11.825 5.5499 11.875 5.6499 11.975L9.5499 15.875L18.3499 7.07505C18.4499 6.97505 18.5666 6.92505 18.6999 6.92505C18.8332 6.92505 18.9582 6.97505 19.0749 7.07505C19.1749 7.19172 19.2249 7.31272 19.2249 7.43805C19.2249 7.56272 19.1749 7.68338 19.0749 7.80005L10.1249 16.75C10.0249 16.8334 9.92924 16.8917 9.8379 16.925C9.7459 16.9584 9.6499 16.975 9.5499 16.975Z" fill="white"/>
</g>
</svg>
