<svg width="73" height="49" viewBox="0 0 73 49" fill="inherit" xmlns="http://www.w3.org/2000/svg">
<path d="M17.3507 39.904V40.828H20.7167C20.6837 41.378 20.5847 41.895 20.4527 42.39L16.8337 42.61L16.9987 43.578L20.1007 43.292C19.5177 44.513 18.4727 45.547 16.7897 46.405L17.4057 47.285C20.9367 45.481 21.8497 42.863 21.8497 39.904H17.3507ZM23.9067 38.914V42.819H21.8167V43.754H23.9067V48.858H25.0507V38.914H23.9067ZM33.6959 42.445H29.1529V40.322H33.6959V42.445ZM34.8179 39.42H28.0309V43.347H34.8179V39.42ZM35.9399 44.568H26.9309V45.481H29.1309V48.902H30.2639V45.481H32.6399V48.902H33.7619V45.481H35.9399V44.568ZM38.766 39.882H37.644V46.339H38.491C40.031 46.339 41.637 46.218 43.342 45.866L43.221 44.92C41.659 45.239 40.174 45.36 38.766 45.371V39.882ZM44.134 38.914V48.847H45.267V38.914H44.134ZM48.8961 43.468H52.2841V42.555H48.8961V40.707H52.6691V39.772H47.7631V46.526H48.5881C50.4251 46.526 51.7891 46.471 53.3401 46.218L53.2301 45.305C51.7891 45.536 50.5461 45.591 48.8961 45.602V43.468ZM54.2421 38.903V48.858H55.3751V38.903H54.2421Z"/>
<mask id="mask0_854_962" style="mask-type:alpha" maskUnits="userSpaceOnUse" x="21" y="0" width="30" height="30">
<rect x="21" width="29.5" height="29.5"/>
</mask>
<g mask="url(#mask0_854_962)">
<path d="M30.6483 20.4655L37.5624 17.0238C37.6648 16.9828 37.757 16.9214 37.8389 16.8394C37.9209 16.7575 37.9823 16.6653 38.0233 16.5629L41.465 9.6488C41.5879 9.44393 41.5674 9.26448 41.4035 9.11042C41.2396 8.95718 41.0553 8.93178 40.8504 9.03421L33.9363 12.4759C33.8339 12.5169 33.7417 12.5783 33.6598 12.6603C33.5778 12.7422 33.5164 12.8344 33.4754 12.9368L30.0337 19.8509C29.9108 20.0557 29.9313 20.2401 30.0952 20.404C30.2591 20.5679 30.4434 20.5884 30.6483 20.4655ZM35.7493 15.979C35.4011 15.979 35.1094 15.861 34.8742 15.625C34.6382 15.3898 34.5202 15.0981 34.5202 14.7498C34.5202 14.4016 34.6382 14.1094 34.8742 13.8734C35.1094 13.6383 35.4011 13.5207 35.7493 13.5207C36.0976 13.5207 36.3897 13.6383 36.6257 13.8734C36.8609 14.1094 36.9785 14.4016 36.9785 14.7498C36.9785 15.0981 36.8609 15.3898 36.6257 15.625C36.3897 15.861 36.0976 15.979 35.7493 15.979ZM35.7493 26.4269C34.1309 26.4269 32.6101 26.1196 31.1867 25.505C29.7625 24.8905 28.528 24.0608 27.4832 23.016C26.4384 21.9712 25.6087 20.7367 24.9941 19.3125C24.3796 17.8891 24.0723 16.3682 24.0723 14.7498C24.0723 13.1314 24.3796 11.6101 24.9941 10.1859C25.6087 8.76257 26.4384 7.52848 27.4832 6.48369C28.528 5.4389 29.7625 4.60921 31.1867 3.99463C32.6101 3.38005 34.1309 3.07275 35.7493 3.07275C37.3678 3.07275 38.8891 3.38005 40.3132 3.99463C41.7366 4.60921 42.9707 5.4389 44.0155 6.48369C45.0603 7.52848 45.89 8.76257 46.5046 10.1859C47.1191 11.6101 47.4264 13.1314 47.4264 14.7498C47.4264 16.3682 47.1191 17.8891 46.5046 19.3125C45.89 20.7367 45.0603 21.9712 44.0155 23.016C42.9707 24.0608 41.7366 24.8905 40.3132 25.505C38.8891 26.1196 37.3678 26.4269 35.7493 26.4269ZM35.7493 24.5832C38.474 24.5832 40.7943 23.6256 42.7101 21.7106C44.6252 19.7947 45.5827 17.4745 45.5827 14.7498C45.5827 12.0252 44.6252 9.70493 42.7101 7.78907C40.7943 5.87402 38.474 4.9165 35.7493 4.9165C33.0247 4.9165 30.7048 5.87402 28.7898 7.78907C26.8739 9.70493 25.916 12.0252 25.916 14.7498C25.916 17.4745 26.8739 19.7947 28.7898 21.7106C30.7048 23.6256 33.0247 24.5832 35.7493 24.5832Z"/>
</g>
</svg>
