<svg width="73" height="48" viewBox="0 0 73 48" fill="none" xmlns="http://www.w3.org/2000/svg">
<path d="M17.3507 38.904V39.828H20.7167C20.6837 40.378 20.5847 40.895 20.4527 41.39L16.8337 41.61L16.9987 42.578L20.1007 42.292C19.5177 43.513 18.4727 44.547 16.7897 45.405L17.4057 46.285C20.9367 44.481 21.8497 41.863 21.8497 38.904H17.3507ZM23.9067 37.914V41.819H21.8167V42.754H23.9067V47.858H25.0507V37.914H23.9067ZM33.6959 41.445H29.1529V39.322H33.6959V41.445ZM34.8179 38.42H28.0309V42.347H34.8179V38.42ZM35.9399 43.568H26.9309V44.481H29.1309V47.902H30.2639V44.481H32.6399V47.902H33.7619V44.481H35.9399V43.568ZM38.766 38.882H37.644V45.339H38.491C40.031 45.339 41.637 45.218 43.342 44.866L43.221 43.92C41.659 44.239 40.174 44.36 38.766 44.371V38.882ZM44.134 37.914V47.847H45.267V37.914H44.134ZM48.8961 42.468H52.2841V41.555H48.8961V39.707H52.6691V38.772H47.7631V45.526H48.5881C50.4251 45.526 51.7891 45.471 53.3401 45.218L53.2301 44.305C51.7891 44.536 50.5461 44.591 48.8961 44.602V42.468ZM54.2421 37.903V47.858H55.3751V37.903H54.2421Z" fill="#393939"/>
<mask id="mask0_143_8968" style="mask-type:alpha" maskUnits="userSpaceOnUse" x="22" y="0" width="29" height="29">
<rect x="22" width="29" height="29" fill="#D9D9D9"/>
</mask>
<g mask="url(#mask0_143_8968)">
<path d="M31.4854 20.1184L38.2823 16.7351C38.383 16.6948 38.4736 16.6344 38.5541 16.5538C38.6347 16.4733 38.6951 16.3827 38.7354 16.282L42.1187 9.48509C42.2396 9.2837 42.2194 9.10729 42.0583 8.95584C41.8972 8.8052 41.716 8.78023 41.5146 8.88092L34.7177 12.2643C34.617 12.3045 34.5264 12.365 34.4458 12.4455C34.3653 12.5261 34.3048 12.6167 34.2646 12.7174L30.8812 19.5143C30.7604 19.7156 30.7805 19.8969 30.9416 20.058C31.1028 20.2191 31.284 20.2393 31.4854 20.1184ZM36.5 15.708C36.1576 15.708 35.8708 15.592 35.6396 15.36C35.4076 15.1288 35.2916 14.842 35.2916 14.4997C35.2916 14.1573 35.4076 13.8701 35.6396 13.6381C35.8708 13.4069 36.1576 13.2913 36.5 13.2913C36.8423 13.2913 37.1295 13.4069 37.3615 13.6381C37.5927 13.8701 37.7083 14.1573 37.7083 14.4997C37.7083 14.842 37.5927 15.1288 37.3615 15.36C37.1295 15.592 36.8423 15.708 36.5 15.708ZM36.5 25.9788C34.909 25.9788 33.4139 25.6768 32.0146 25.0726C30.6146 24.4684 29.401 23.6528 28.3739 22.6257C27.3469 21.5986 26.5312 20.3851 25.9271 18.985C25.3229 17.5858 25.0208 16.0906 25.0208 14.4997C25.0208 12.9087 25.3229 11.4132 25.9271 10.0131C26.5312 8.61388 27.3469 7.40072 28.3739 6.37363C29.401 5.34655 30.6146 4.53092 32.0146 3.92676C33.4139 3.32259 34.909 3.02051 36.5 3.02051C38.091 3.02051 39.5865 3.32259 40.9865 3.92676C42.3858 4.53092 43.5989 5.34655 44.626 6.37363C45.6531 7.40072 46.4687 8.61388 47.0729 10.0131C47.6771 11.4132 47.9791 12.9087 47.9791 14.4997C47.9791 16.0906 47.6771 17.5858 47.0729 18.985C46.4687 20.3851 45.6531 21.5986 44.626 22.6257C43.5989 23.6528 42.3858 24.4684 40.9865 25.0726C39.5865 25.6768 38.091 25.9788 36.5 25.9788ZM36.5 24.1663C39.1785 24.1663 41.4594 23.225 43.3428 21.3425C45.2254 19.4591 46.1666 17.1781 46.1666 14.4997C46.1666 11.8212 45.2254 9.54027 43.3428 7.65688C41.4594 5.7743 39.1785 4.83301 36.5 4.83301C33.8215 4.83301 31.541 5.7743 29.6584 7.65688C27.775 9.54027 26.8333 11.8212 26.8333 14.4997C26.8333 17.1781 27.775 19.4591 29.6584 21.3425C31.541 23.225 33.8215 24.1663 36.5 24.1663Z" fill="#393939"/>
</g>
</svg>
