<svg width="36" height="36" viewBox="0 0 36 36" fill="none" xmlns="http://www.w3.org/2000/svg">
<circle cx="18" cy="18" r="18" fill="#CDCDCD"/>
<mask id="mask0_27_3432" style="mask-type:alpha" maskUnits="userSpaceOnUse" x="5" y="5" width="26" height="26">
<rect x="5" y="5" width="26" height="26" fill="#D9D9D9"/>
</mask>
<g mask="url(#mask0_27_3432)">
<path d="M25.9354 14.7501L21.3041 10.1459L22.7666 8.65635C23.2 8.22301 23.7326 8.00635 24.3646 8.00635C24.9965 8.00635 25.5382 8.22301 25.9896 8.65635L27.3979 10.0918C27.8493 10.5251 28.0793 11.0487 28.088 11.6626C28.0974 12.2765 27.8854 12.8001 27.4521 13.2334L25.9354 14.7501ZM9.44163 27.8584C9.09858 27.8584 8.80536 27.7367 8.56197 27.4933C8.31786 27.2492 8.1958 26.9557 8.1958 26.6126V23.7418C8.1958 23.5793 8.22758 23.4211 8.29113 23.2673C8.35397 23.1142 8.44858 22.9744 8.57497 22.848L19.7333 11.6897L24.3646 16.3209L13.2062 27.4793C13.0798 27.6057 12.9444 27.7006 12.8 27.7642C12.6555 27.827 12.493 27.8584 12.3125 27.8584H9.44163Z" fill="#1C1B1F"/>
</g>
</svg>
