<svg width="31" height="31" viewBox="0 0 31 31" fill="none" xmlns="http://www.w3.org/2000/svg">
<circle cx="15.5" cy="15.5" r="15.5" fill="#CDCDCD"/>
<mask id="mask0_117_3127" style="mask-type:alpha" maskUnits="userSpaceOnUse" x="4" y="4" width="23" height="23">
<rect x="4.30542" y="4.30615" width="22.3889" height="22.3889" fill="#D9D9D9"/>
</mask>
<g mask="url(#mask0_117_3127)">
<path d="M22.3332 12.7016L18.3452 8.73695L19.6046 7.45425C19.9777 7.08111 20.4364 6.89453 20.9806 6.89453C21.5248 6.89453 21.9912 7.08111 22.3799 7.45425L23.5926 8.69031C23.9813 9.06345 24.1794 9.51434 24.1869 10.043C24.1949 10.5716 24.0124 11.0225 23.6393 11.3956L22.3332 12.7016ZM8.1303 23.9894C7.83489 23.9894 7.58239 23.8846 7.37281 23.675C7.1626 23.4648 7.0575 23.212 7.0575 22.9166V20.4445C7.0575 20.3045 7.08486 20.1683 7.13959 20.0359C7.19369 19.904 7.27516 19.7837 7.384 19.6749L16.9926 10.0663L20.9806 14.0543L11.372 23.6629C11.2632 23.7717 11.1466 23.8535 11.0222 23.9082C10.8978 23.9623 10.7579 23.9894 10.6024 23.9894H8.1303Z" fill="#1C1B1F"/>
</g>
</svg>
