<svg width="39" height="37" viewBox="0 0 39 37" fill="none" xmlns="http://www.w3.org/2000/svg">
<rect width="39" height="37" rx="18.5" fill="#393939"/>
<path d="M9.91903 19.206V24H7.99077V13.0909H9.87642V17.2085H9.9723C10.1641 16.7468 10.4606 16.3828 10.8619 16.1165C11.2667 15.8466 11.7816 15.7116 12.4066 15.7116C12.9748 15.7116 13.4702 15.8306 13.8928 16.0685C14.3153 16.3065 14.642 16.6545 14.8729 17.1126C15.1072 17.5707 15.2244 18.13 15.2244 18.7905V24H13.2962V19.0888C13.2962 18.5384 13.1541 18.1104 12.87 17.805C12.5895 17.4961 12.1953 17.3416 11.6875 17.3416C11.3466 17.3416 11.0412 17.4162 10.7713 17.5653C10.505 17.7109 10.2955 17.9222 10.1428 18.1992C9.99361 18.4762 9.91903 18.8118 9.91903 19.206ZM20.7589 24.1598C19.9599 24.1598 19.2674 23.984 18.6815 23.6325C18.0955 23.2809 17.641 22.7891 17.3178 22.157C16.9982 21.5249 16.8384 20.7862 16.8384 19.9411C16.8384 19.0959 16.9982 18.3555 17.3178 17.7198C17.641 17.0842 18.0955 16.5906 18.6815 16.239C19.2674 15.8874 19.9599 15.7116 20.7589 15.7116C21.5579 15.7116 22.2504 15.8874 22.8363 16.239C23.4222 16.5906 23.875 17.0842 24.1946 17.7198C24.5178 18.3555 24.6793 19.0959 24.6793 19.9411C24.6793 20.7862 24.5178 21.5249 24.1946 22.157C23.875 22.7891 23.4222 23.2809 22.8363 23.6325C22.2504 23.984 21.5579 24.1598 20.7589 24.1598ZM20.7695 22.6151C21.2028 22.6151 21.565 22.4961 21.8562 22.2582C22.1474 22.0167 22.364 21.6935 22.506 21.2887C22.6516 20.8839 22.7244 20.4329 22.7244 19.9357C22.7244 19.435 22.6516 18.9822 22.506 18.5774C22.364 18.169 22.1474 17.8441 21.8562 17.6026C21.565 17.3612 21.2028 17.2404 20.7695 17.2404C20.3256 17.2404 19.9563 17.3612 19.6616 17.6026C19.3704 17.8441 19.152 18.169 19.0064 18.5774C18.8643 18.9822 18.7933 19.435 18.7933 19.9357C18.7933 20.4329 18.8643 20.8839 19.0064 21.2887C19.152 21.6935 19.3704 22.0167 19.6616 22.2582C19.9563 22.4961 20.3256 22.6151 20.7695 22.6151ZM30.4015 15.8182V17.3097H25.6981V15.8182H30.4015ZM26.8593 13.858H28.7876V21.5391C28.7876 21.7983 28.8266 21.9972 28.9047 22.1357C28.9864 22.2706 29.093 22.3629 29.2243 22.4126C29.3557 22.4624 29.5013 22.4872 29.6611 22.4872C29.7819 22.4872 29.892 22.4783 29.9914 22.4606C30.0944 22.4428 30.1725 22.4268 30.2258 22.4126L30.5507 23.9201C30.4477 23.9556 30.3003 23.9947 30.1086 24.0373C29.9204 24.0799 29.6895 24.1048 29.4161 24.1119C28.9331 24.1261 28.4981 24.0533 28.1111 23.8935C27.724 23.7301 27.4168 23.478 27.1895 23.1371C26.9658 22.7962 26.8557 22.37 26.8593 21.8587V13.858Z" fill="white"/>
</svg>
