<svg width="36" height="36" viewBox="0 0 36 36" fill="none" xmlns="http://www.w3.org/2000/svg">
<circle cx="18" cy="18" r="18" fill="#393939"/>
<path d="M7.2558 24H9.4608V18.225C10.0758 17.61 10.5108 17.28 11.2008 17.28C12.0258 17.28 12.3858 17.73 12.3858 19.035V24H14.5908V18.765C14.5908 16.65 13.8108 15.39 11.9958 15.39C10.8558 15.39 10.0308 15.99 9.3558 16.62L9.4608 15.045V12.03H7.2558V24ZM20.3605 24.21C22.4605 24.21 24.3955 22.59 24.3955 19.8C24.3955 17.01 22.4605 15.39 20.3605 15.39C18.2605 15.39 16.3255 17.01 16.3255 19.8C16.3255 22.59 18.2605 24.21 20.3605 24.21ZM20.3605 22.41C19.2205 22.41 18.5755 21.39 18.5755 19.8C18.5755 18.225 19.2205 17.19 20.3605 17.19C21.5005 17.19 22.1455 18.225 22.1455 19.8C22.1455 21.39 21.5005 22.41 20.3605 22.41ZM28.8904 24.21C29.6254 24.21 30.2104 24.045 30.6604 23.895L30.3004 22.29C30.0754 22.38 29.7454 22.47 29.4754 22.47C28.7254 22.47 28.3354 22.02 28.3354 21.06V17.34H30.4054V15.6H28.3354V13.335H26.5054L26.2504 15.6L24.9454 15.705V17.34H26.1304V21.06C26.1304 22.935 26.8954 24.21 28.8904 24.21Z" fill="white"/>
</svg>
