<svg width="36" height="36" viewBox="0 0 36 36" fill="none" xmlns="http://www.w3.org/2000/svg">
<circle cx="18" cy="18" r="18" fill="#393939"/>
<path d="M9.32123 24H11.5262V15.6H9.32123V24ZM10.4312 14.25C11.1812 14.25 11.7062 13.77 11.7062 13.035C11.7062 12.315 11.1812 11.835 10.4312 11.835C9.66623 11.835 9.14123 12.315 9.14123 13.035C9.14123 13.77 9.66623 14.25 10.4312 14.25ZM17.4469 24.21C18.3769 24.21 19.3969 23.895 20.2069 23.19L19.3219 21.735C18.8569 22.125 18.2869 22.41 17.6869 22.41C16.4869 22.41 15.6019 21.39 15.6019 19.8C15.6019 18.225 16.4719 17.19 17.7619 17.19C18.2269 17.19 18.6169 17.385 19.0369 17.745L20.0869 16.32C19.4719 15.795 18.6769 15.39 17.6419 15.39C15.3619 15.39 13.3519 17.01 13.3519 19.8C13.3519 22.59 15.1219 24.21 17.4469 24.21ZM24.9929 24.21C26.0279 24.21 27.0929 23.85 27.9179 23.28L27.1679 21.93C26.5679 22.305 25.9679 22.515 25.2779 22.515C24.0329 22.515 23.1329 21.795 22.9529 20.415H28.1279C28.1879 20.22 28.2329 19.815 28.2329 19.395C28.2329 17.085 27.0329 15.39 24.7229 15.39C22.7279 15.39 20.8079 17.085 20.8079 19.8C20.8079 22.575 22.6379 24.21 24.9929 24.21ZM22.9229 18.945C23.0879 17.73 23.8679 17.1 24.7529 17.1C25.8329 17.1 26.3429 17.82 26.3429 18.945H22.9229Z" fill="white"/>
</svg>
