<svg width="36" height="37" viewBox="0 0 36 37" fill="none" xmlns="http://www.w3.org/2000/svg">
<rect width="36" height="37" rx="18" fill="#393939"/>
<path d="M7.99077 24V15.8182H9.91903V24H7.99077ZM8.96023 14.657C8.65483 14.657 8.39205 14.5558 8.17188 14.3533C7.9517 14.1474 7.84162 13.9006 7.84162 13.6129C7.84162 13.3217 7.9517 13.0749 8.17188 12.8725C8.39205 12.6665 8.65483 12.5636 8.96023 12.5636C9.26918 12.5636 9.53196 12.6665 9.74858 12.8725C9.96875 13.0749 10.0788 13.3217 10.0788 13.6129C10.0788 13.9006 9.96875 14.1474 9.74858 14.3533C9.53196 14.5558 9.26918 14.657 8.96023 14.657ZM15.4708 24.1598C14.654 24.1598 13.9527 23.9805 13.3667 23.6218C12.7844 23.2631 12.3351 22.7678 12.0191 22.1357C11.7066 21.5 11.5503 20.7685 11.5503 19.9411C11.5503 19.1101 11.7101 18.3768 12.0297 17.7411C12.3493 17.1019 12.8003 16.6048 13.3827 16.2496C13.9687 15.891 14.6611 15.7116 15.4601 15.7116C16.1242 15.7116 16.7119 15.8342 17.2233 16.0792C17.7382 16.3207 18.1483 16.6634 18.4537 17.1072C18.7591 17.5476 18.9331 18.0625 18.9758 18.652H17.1327C17.0581 18.2578 16.8806 17.9293 16.6001 17.6665C16.3231 17.4002 15.952 17.267 15.4868 17.267C15.0926 17.267 14.7464 17.3736 14.4481 17.5866C14.1498 17.7962 13.9172 18.098 13.7503 18.4922C13.5869 18.8864 13.5052 19.3587 13.5052 19.9091C13.5052 20.4666 13.5869 20.946 13.7503 21.3473C13.9136 21.745 14.1427 22.0522 14.4374 22.2688C14.7357 22.4819 15.0855 22.5884 15.4868 22.5884C15.7709 22.5884 16.0248 22.5352 16.2485 22.4286C16.4758 22.3185 16.6657 22.1605 16.8184 21.9545C16.9711 21.7486 17.0759 21.4982 17.1327 21.2035H18.9758C18.9296 21.7823 18.7591 22.2955 18.4644 22.7429C18.1697 23.1868 17.7684 23.5348 17.2606 23.7869C16.7528 24.0355 16.1562 24.1598 15.4708 24.1598ZM24.1813 24.1598C23.361 24.1598 22.6525 23.9893 22.0559 23.6484C21.4629 23.304 21.0066 22.8175 20.687 22.1889C20.3674 21.5568 20.2076 20.8129 20.2076 19.957C20.2076 19.1154 20.3674 18.3768 20.687 17.7411C21.0101 17.1019 21.4611 16.6048 22.04 16.2496C22.6188 15.891 23.2988 15.7116 24.0801 15.7116C24.5843 15.7116 25.0602 15.7933 25.5076 15.9567C25.9586 16.1165 26.3564 16.3651 26.7008 16.7024C27.0488 17.0398 27.3223 17.4695 27.5211 17.9915C27.72 18.5099 27.8194 19.1278 27.8194 19.8452V20.4364H21.1131V19.1367H25.9711C25.9675 18.7674 25.8876 18.4389 25.7314 18.1513C25.5751 17.8601 25.3567 17.631 25.0762 17.4641C24.7992 17.2972 24.476 17.2138 24.1067 17.2138C23.7125 17.2138 23.3663 17.3097 23.068 17.5014C22.7697 17.6896 22.5371 17.9382 22.3702 18.2472C22.2069 18.5526 22.1234 18.8881 22.1199 19.2539V20.3885C22.1199 20.8643 22.2069 21.2727 22.3809 21.6136C22.5549 21.951 22.7981 22.2102 23.1106 22.3913C23.4231 22.5689 23.7889 22.6577 24.2079 22.6577C24.4885 22.6577 24.7424 22.6186 24.9696 22.5405C25.1969 22.4588 25.394 22.3398 25.5609 22.1836C25.7278 22.0273 25.8539 21.8338 25.9391 21.603L27.7395 21.8054C27.6259 22.2812 27.4093 22.6967 27.0897 23.0518C26.7736 23.4034 26.3688 23.6768 25.8752 23.8722C25.3816 24.0639 24.8169 24.1598 24.1813 24.1598Z" fill="white"/>
</svg>
