<svg width="35" height="35" viewBox="0 0 35 35" fill="none" xmlns="http://www.w3.org/2000/svg">
<path d="M17.5 32.0832C15.4583 32.0832 13.5503 31.7004 11.776 30.9347C10.0017 30.1691 8.45832 29.13 7.14582 27.8175C5.83332 26.505 4.80034 24.9556 4.04686 23.1691C3.29339 21.3826 2.91666 19.4686 2.91666 17.4269C2.91666 15.3853 3.29339 13.4833 4.04686 11.7212C4.80034 9.95904 5.83332 8.42171 7.14582 7.10921C8.45832 5.79671 10.0017 4.7698 11.776 4.02848C13.5503 3.28716 15.4583 2.9165 17.5 2.9165C19.5417 2.9165 21.4496 3.28716 23.2239 4.02848C24.9983 4.7698 26.5417 5.79671 27.8542 7.10921C29.1667 8.42171 30.1996 9.95904 30.9531 11.7212C31.7066 13.4833 32.0833 15.3853 32.0833 17.4269C32.0833 19.4686 31.7066 21.3826 30.9531 23.1691C30.1996 24.9556 29.1667 26.505 27.8542 27.8175C26.5417 29.13 24.9983 30.1691 23.2239 30.9347C21.4496 31.7004 19.5417 32.0832 17.5 32.0832ZM17.5 29.9686C18.3507 29.0936 19.0616 28.091 19.6328 26.9608C20.204 25.8306 20.6719 24.4877 21.0364 22.9321H14C14.3403 24.3905 14.796 25.703 15.3672 26.8696C15.9384 28.0363 16.6493 29.0693 17.5 29.9686ZM14.401 29.5311C13.7934 28.6075 13.2708 27.6109 12.8333 26.5415C12.3958 25.4721 12.0312 24.2689 11.7396 22.9321H6.27082C7.19443 24.6578 8.26388 26.0129 9.47916 26.9972C10.6944 27.9816 12.3351 28.8262 14.401 29.5311ZM20.6354 29.4946C22.3854 28.9356 23.9592 28.0971 25.3568 26.979C26.7543 25.8609 27.8785 24.512 28.7292 22.9321H23.2969C22.9809 24.2446 22.6102 25.4356 22.1849 26.505C21.7595 27.5745 21.243 28.571 20.6354 29.4946ZM5.54166 20.7446H11.3385C11.2656 20.0884 11.2231 19.499 11.2109 18.9764C11.1988 18.4538 11.1927 17.9373 11.1927 17.4269C11.1927 16.8193 11.2049 16.2785 11.2292 15.8045C11.2535 15.3306 11.3021 14.8019 11.375 14.2186H5.54166C5.37152 14.8019 5.25607 15.3245 5.1953 15.7863C5.13454 16.2481 5.10416 16.795 5.10416 17.4269C5.10416 18.0589 5.13454 18.624 5.1953 19.1222C5.25607 19.6205 5.37152 20.1613 5.54166 20.7446V20.7446ZM13.5989 20.7446H21.4375C21.5347 19.9912 21.5955 19.3774 21.6198 18.9035C21.6441 18.4295 21.6562 17.9373 21.6562 17.4269C21.6562 16.9408 21.6441 16.4729 21.6198 16.0233C21.5955 15.5736 21.5347 14.9721 21.4375 14.2186H13.5989C13.5017 14.9721 13.441 15.5736 13.4167 16.0233C13.3924 16.4729 13.3802 16.9408 13.3802 17.4269C13.3802 17.9373 13.3924 18.4295 13.4167 18.9035C13.441 19.3774 13.5017 19.9912 13.5989 20.7446V20.7446ZM23.625 20.7446H29.4583C29.6285 20.1613 29.7439 19.6205 29.8047 19.1222C29.8654 18.624 29.8958 18.0589 29.8958 17.4269C29.8958 16.795 29.8654 16.2481 29.8047 15.7863C29.7439 15.3245 29.6285 14.8019 29.4583 14.2186H23.6614C23.7344 15.0693 23.783 15.7195 23.8073 16.1691C23.8316 16.6188 23.8437 17.038 23.8437 17.4269C23.8437 17.9616 23.8255 18.466 23.7891 18.9399C23.7526 19.4139 23.6979 20.0155 23.625 20.7446V20.7446ZM23.2604 12.0311H28.7292C27.9271 10.354 26.8272 8.95643 25.4297 7.83838C24.0321 6.72032 22.4219 5.93039 20.5989 5.46859C21.2066 6.36789 21.7231 7.34011 22.1484 8.38525C22.5738 9.43039 22.9444 10.6457 23.2604 12.0311V12.0311ZM14 12.0311H21.0729C20.8055 10.7429 20.3559 9.49723 19.7239 8.29411C19.092 7.09098 18.3507 6.02761 17.5 5.104C16.7222 5.76025 16.066 6.6231 15.5312 7.69255C14.9965 8.76199 14.4861 10.2082 14 12.0311V12.0311ZM6.27082 12.0311H11.776C12.0434 10.7186 12.3837 9.54584 12.7969 8.51286C13.2101 7.47987 13.7326 6.47727 14.3646 5.50505C12.5417 5.96685 10.9496 6.74463 9.58853 7.83838C8.22742 8.93213 7.12152 10.3297 6.27082 12.0311V12.0311Z" fill="#393939"/>
</svg>
