<svg width="20" height="20" viewBox="0 0 20 20" fill="none" xmlns="http://www.w3.org/2000/svg">
<mask id="mask0_47_3073" style="mask-type:alpha" maskUnits="userSpaceOnUse" x="0" y="0" width="20" height="20">
<rect x="0.68396" y="0.375488" width="19.3122" height="19.3122" fill="#D9D9D9"/>
</mask>
<g mask="url(#mask0_47_3073)">
<path d="M9.11305 16.3883L7.70486 15.1209C6.28327 13.82 4.99927 12.5258 3.85288 11.2384C2.70594 9.95088 2.13248 8.51587 2.13248 6.93334C2.13248 5.61903 2.56834 4.52601 3.44008 3.65428C4.31181 2.78255 5.40483 2.34668 6.71914 2.34668C7.41652 2.34668 8.08038 2.4875 8.71071 2.76914C9.34104 3.05077 9.8842 3.45311 10.3402 3.97615C10.7962 3.45311 11.3361 3.05077 11.96 2.76914C12.5834 2.4875 13.2504 2.34668 13.9612 2.34668C15.2621 2.34668 16.3517 2.78255 17.2298 3.65428C18.1085 4.52601 18.5479 5.61903 18.5479 6.93334C18.5479 8.51587 17.9744 9.9541 16.8275 11.248C15.6811 12.5425 14.3904 13.8402 12.9554 15.141L11.5673 16.3883C11.2186 16.7236 10.8096 16.8912 10.3402 16.8912C9.87079 16.8912 9.46174 16.7236 9.11305 16.3883ZM9.5355 5.82691C9.1734 5.30387 8.76784 4.89804 8.31883 4.60943C7.86929 4.32136 7.33605 4.17732 6.71914 4.17732C5.92787 4.17732 5.27072 4.43884 4.74768 4.96188C4.22464 5.48492 3.96312 6.14207 3.96312 6.93334C3.96312 7.63073 4.20801 8.36835 4.69779 9.1462C5.18703 9.92406 5.77364 10.6783 6.45762 11.409C7.14159 12.1401 7.84568 12.8241 8.56989 13.4609L10.3402 15.0203C10.7962 14.6046 11.3863 14.0783 12.1105 13.4416C12.8347 12.8043 13.5388 12.1203 14.2227 11.3896C14.9067 10.6585 15.4936 9.90716 15.9834 9.13574C16.4726 8.36486 16.7172 7.63073 16.7172 6.93334C16.7172 6.14207 16.4557 5.48492 15.9327 4.96188C15.4096 4.43884 14.7525 4.17732 13.9612 4.17732C13.3443 4.17732 12.8113 4.32136 12.3623 4.60943C11.9128 4.89804 11.507 5.30387 11.1449 5.82691C11.0376 5.97443 10.9136 6.08521 10.7731 6.15924C10.632 6.23273 10.4877 6.26948 10.3402 6.26948C10.1792 6.26948 10.0285 6.23273 9.88795 6.15924C9.74687 6.08521 9.62938 5.97443 9.5355 5.82691Z" fill="#393939"/>
</g>
<mask id="mask1_47_3073" style="mask-type:alpha" maskUnits="userSpaceOnUse" x="0" y="0" width="20" height="20">
<rect x="0.68396" y="0.375488" width="19.3122" height="19.3122" fill="#D9D9D9"/>
</mask>
<g mask="url(#mask1_47_3073)">
<path d="M9.11305 16.3883L7.70486 15.1209C6.28327 13.82 4.99927 12.5258 3.85288 11.2384C2.70594 9.95088 2.13248 8.51587 2.13248 6.93334C2.13248 5.61903 2.56834 4.52601 3.44008 3.65428C4.31181 2.78255 5.40483 2.34668 6.71914 2.34668C7.41652 2.34668 8.08038 2.4875 8.71071 2.76914C9.34104 3.05077 9.8842 3.45311 10.3402 3.97615C10.7962 3.45311 11.3361 3.05077 11.96 2.76914C12.5834 2.4875 13.2504 2.34668 13.9612 2.34668C15.2621 2.34668 16.3517 2.78255 17.2298 3.65428C18.1085 4.52601 18.5479 5.61903 18.5479 6.93334C18.5479 8.51587 17.9744 9.9541 16.8275 11.248C15.6811 12.5425 14.3904 13.8402 12.9554 15.141L11.5673 16.3883C11.2186 16.7102 10.8096 16.8711 10.3402 16.8711C9.87079 16.8711 9.46174 16.7102 9.11305 16.3883Z" fill="#393939"/>
</g>
</svg>
