<svg width="21" height="22" viewBox="0 0 21 22" fill="none" xmlns="http://www.w3.org/2000/svg">
<mask id="mask0_114_1288" style="mask-type:alpha" maskUnits="userSpaceOnUse" x="0" y="0" width="21" height="22">
<rect x="0.227356" y="0.712891" width="20.7557" height="20.7557" fill="#D9D9D9"/>
</mask>
<g mask="url(#mask0_114_1288)">
<path d="M9.28643 17.9227L7.773 16.5606C6.24515 15.1624 4.86519 13.7715 3.6331 12.3878C2.40045 11.0041 1.78412 9.46183 1.78412 7.76102C1.78412 6.34848 2.25256 5.17376 3.18945 4.23688C4.12634 3.29999 5.30105 2.83154 6.71359 2.83154C7.46311 2.83154 8.17658 2.98289 8.85402 3.28557C9.53147 3.58826 10.1152 4.02067 10.6053 4.5828C11.0954 4.02067 11.6756 3.58826 12.3462 3.28557C13.0161 2.98289 13.7331 2.83154 14.497 2.83154C15.8951 2.83154 17.0661 3.29999 18.0099 4.23688C18.9543 5.17376 19.4265 6.34848 19.4265 7.76102C19.4265 9.46183 18.8101 11.0076 17.5775 12.3982C16.3454 13.7894 14.9582 15.1841 13.416 16.5822L11.9241 17.9227C11.5494 18.283 11.1098 18.4632 10.6053 18.4632C10.1008 18.4632 9.66119 18.283 9.28643 17.9227ZM9.74047 6.57189C9.3513 6.00976 8.91543 5.5736 8.43286 5.26342C7.94971 4.95381 7.37662 4.79901 6.71359 4.79901C5.86319 4.79901 5.15692 5.08008 4.59478 5.64221C4.03265 6.20434 3.75158 6.91061 3.75158 7.76102C3.75158 8.51053 4.01478 9.30328 4.54117 10.1393C5.06698 10.9753 5.69743 11.7859 6.43253 12.5712C7.16763 13.357 7.92434 14.0921 8.70268 14.7764L10.6053 16.4525C11.0954 16.0056 11.7296 15.44 12.5079 14.7557C13.2862 14.0708 14.0429 13.3357 14.778 12.5504C15.5131 11.7646 16.1439 10.9571 16.6703 10.128C17.1961 9.29954 17.459 8.51053 17.459 7.76102C17.459 6.91061 17.1779 6.20434 16.6158 5.64221C16.0537 5.08008 15.3474 4.79901 14.497 4.79901C13.8339 4.79901 13.2611 4.95381 12.7786 5.26342C12.2954 5.5736 11.8593 6.00976 11.4701 6.57189C11.3548 6.73044 11.2216 6.8495 11.0706 6.92906C10.9189 7.00805 10.7638 7.04754 10.6053 7.04754C10.4323 7.04754 10.2703 7.00805 10.1193 6.92906C9.96762 6.8495 9.84136 6.73044 9.74047 6.57189Z" fill="#393939"/>
</g>
</svg>
