<svg width="31" height="31" viewBox="0 0 31 31" fill="none" xmlns="http://www.w3.org/2000/svg">
<circle cx="15.5" cy="15.5" r="15.5" fill="#CDCDCD"/>
<mask id="mask0_117_3142" style="mask-type:alpha" maskUnits="userSpaceOnUse" x="4" y="4" width="23" height="23">
<rect x="4.30554" y="4.30566" width="22.3889" height="22.3889" fill="#D9D9D9"/>
</mask>
<g mask="url(#mask0_117_3142)">
<path d="M9.97274 24.9926C9.38193 24.9926 8.88066 24.7867 8.46896 24.375C8.05663 23.9627 7.85046 23.4611 7.85046 22.8703V13.6815C7.85046 13.1063 8.05663 12.6087 8.46896 12.1889C8.88066 11.7691 9.38193 11.5592 9.97274 11.5592H10.7424V9.85676C10.7424 8.53519 11.2048 7.41171 12.1295 6.4863C13.0549 5.56151 14.1784 5.09912 15.5 5.09912C16.8216 5.09912 17.9451 5.56151 18.8705 6.4863C19.7952 7.41171 20.2576 8.53519 20.2576 9.85676V11.5592H21.0273C21.6181 11.5592 22.1196 11.7691 22.532 12.1889C22.9437 12.6087 23.1495 13.1063 23.1495 13.6815V22.8703C23.1495 23.4611 22.9437 23.9627 22.532 24.375C22.1196 24.7867 21.6181 24.9926 21.0273 24.9926H9.97274ZM15.5 20.1417C16.0131 20.1417 16.4525 19.9588 16.8181 19.5931C17.1832 19.2281 17.3657 18.789 17.3657 18.2759C17.3657 17.7628 17.1832 17.3235 16.8181 16.9578C16.4525 16.5927 16.0131 16.4102 15.5 16.4102C14.9869 16.4102 14.5479 16.5927 14.1828 16.9578C13.8171 17.3235 13.6343 17.7628 13.6343 18.2759C13.6343 18.789 13.8171 19.2281 14.1828 19.5931C14.5479 19.9588 14.9869 20.1417 15.5 20.1417ZM12.8646 11.5592H18.1354V9.85676C18.1354 9.12601 17.8788 8.5041 17.3657 7.99102C16.8527 7.47794 16.2307 7.2214 15.5 7.2214C14.7693 7.2214 14.1473 7.47794 13.6343 7.99102C13.1212 8.5041 12.8646 9.12601 12.8646 9.85676V11.5592Z" fill="#1C1B1F"/>
</g>
</svg>
