<svg width="36" height="36" viewBox="0 0 36 36" fill="none" xmlns="http://www.w3.org/2000/svg">
<circle cx="18" cy="18" r="18" fill="#CDCDCD"/>
<mask id="mask0_27_3430" style="mask-type:alpha" maskUnits="userSpaceOnUse" x="5" y="5" width="26" height="26">
<rect x="5" y="5" width="26" height="26" fill="#D9D9D9"/>
</mask>
<g mask="url(#mask0_27_3430)">
<path d="M11.5813 29.0235C10.8952 29.0235 10.3131 28.7844 9.83495 28.3063C9.35612 27.8275 9.1167 27.245 9.1167 26.5589V15.8881C9.1167 15.22 9.35612 14.6422 9.83495 14.1547C10.3131 13.6672 10.8952 13.4235 11.5813 13.4235H12.475V11.4464C12.475 9.91166 13.012 8.60697 14.0859 7.5323C15.1606 6.45836 16.4653 5.92139 18 5.92139C19.5348 5.92139 20.8394 6.45836 21.9141 7.5323C22.9881 8.60697 23.525 9.91166 23.525 11.4464V13.4235H24.4188C25.1049 13.4235 25.6874 13.6672 26.1662 14.1547C26.6443 14.6422 26.8834 15.22 26.8834 15.8881V26.5589C26.8834 27.245 26.6443 27.8275 26.1662 28.3063C25.6874 28.7844 25.1049 29.0235 24.4188 29.0235H11.5813ZM18 23.3901C18.5959 23.3901 19.1061 23.1778 19.5308 22.7531C19.9547 22.3292 20.1667 21.8193 20.1667 21.2235C20.1667 20.6276 19.9547 20.1174 19.5308 19.6927C19.1061 19.2688 18.5959 19.0568 18 19.0568C17.4042 19.0568 16.8943 19.2688 16.4704 19.6927C16.0457 20.1174 15.8334 20.6276 15.8334 21.2235C15.8334 21.8193 16.0457 22.3292 16.4704 22.7531C16.8943 23.1778 17.4042 23.3901 18 23.3901ZM14.9396 13.4235H21.0604V11.4464C21.0604 10.5978 20.7625 9.87555 20.1667 9.27972C19.5709 8.68389 18.8486 8.38597 18 8.38597C17.1514 8.38597 16.4292 8.68389 15.8334 9.27972C15.2375 9.87555 14.9396 10.5978 14.9396 11.4464V13.4235Z" fill="#1C1B1F"/>
</g>
</svg>
