<svg width="119" height="23" viewBox="0 0 119 23" fill="none" xmlns="http://www.w3.org/2000/svg">
<path d="M54.8865 6.99818H51.2562C51.1899 6.52268 51.0545 6.10033 50.8501 5.73112C50.6456 5.35632 50.3832 5.03746 50.0627 4.77453C49.7422 4.51161 49.372 4.31023 48.9521 4.17038C48.5376 4.03052 48.0873 3.9606 47.601 3.9606C46.7225 3.9606 45.9572 4.18156 45.3052 4.6235C44.6532 5.05983 44.1476 5.69756 43.7884 6.53667C43.4292 7.37018 43.2497 8.38271 43.2497 9.57424C43.2497 10.7993 43.4292 11.8286 43.7884 12.6622C44.1531 13.4957 44.6614 14.125 45.3135 14.5502C45.9655 14.9753 46.7197 15.1879 47.5762 15.1879C48.0569 15.1879 48.5017 15.1236 48.9106 14.9949C49.325 14.8662 49.6925 14.6788 50.013 14.4327C50.3334 14.181 50.5987 13.8761 50.8086 13.5181C51.0241 13.16 51.1733 12.7517 51.2562 12.293L54.8865 12.3097C54.7926 13.0985 54.5577 13.8593 54.182 14.5921C53.8118 15.3193 53.3117 15.9711 52.6818 16.5472C52.0574 17.1178 51.3115 17.571 50.444 17.9066C49.582 18.2367 48.6067 18.4017 47.5182 18.4017C46.0042 18.4017 44.6504 18.0548 43.4569 17.3612C42.2689 16.6675 41.3295 15.6634 40.6388 14.3488C39.9537 13.0342 39.6111 11.4427 39.6111 9.57424C39.6111 7.70023 39.9592 6.10592 40.6554 4.79132C41.3516 3.47671 42.2965 2.47537 43.49 1.7873C44.6835 1.09364 46.0263 0.746808 47.5182 0.746808C48.5017 0.746808 49.4134 0.88666 50.2533 1.16636C51.0987 1.44607 51.8475 1.85443 52.4995 2.39146C53.1515 2.9229 53.6819 3.57461 54.0908 4.34659C54.5053 5.11857 54.7705 6.00243 54.8865 6.99818Z" fill="#C1C1C1"/>
<path d="M65.5578 12.6789V5.278H69.0886V18.1667H65.6987V15.8256H65.5661C65.2787 16.5808 64.8008 17.1878 64.1322 17.6465C63.4691 18.1052 62.6596 18.3345 61.7037 18.3345C60.8528 18.3345 60.104 18.1388 59.4575 17.7472C58.8111 17.3556 58.3055 16.799 57.9408 16.0773C57.5816 15.3557 57.3993 14.4914 57.3937 13.4845V5.278H60.9246V12.8468C60.9301 13.6076 61.1318 14.2089 61.5296 14.6509C61.9275 15.0928 62.4607 15.3138 63.1293 15.3138C63.5548 15.3138 63.9526 15.2159 64.3228 15.0201C64.693 14.8187 64.9914 14.5222 65.218 14.1306C65.45 13.739 65.5633 13.2551 65.5578 12.6789Z" fill="#C1C1C1"/>
<path d="M71.9129 23V5.278H75.394V7.4429H75.5515C75.7062 7.09607 75.93 6.74365 76.2228 6.38563C76.5212 6.02201 76.908 5.71993 77.3832 5.47939C77.8639 5.23325 78.4607 5.11018 79.1735 5.11018C80.1018 5.11018 80.9582 5.35632 81.7429 5.8486C82.5275 6.33528 83.1547 7.0709 83.6243 8.05545C84.094 9.03442 84.3288 10.2623 84.3288 11.7391C84.3288 13.1768 84.0995 14.3907 83.6409 15.3809C83.1878 16.3654 82.569 17.1122 81.7843 17.6213C81.0052 18.1248 80.1322 18.3765 79.1652 18.3765C78.48 18.3765 77.8971 18.2618 77.4164 18.0325C76.9412 17.8031 76.5516 17.515 76.2477 17.1682C75.9438 16.8158 75.7117 16.4605 75.5515 16.1025H75.4437V23H71.9129ZM75.3691 11.7224C75.3691 12.4887 75.4741 13.1572 75.6841 13.7278C75.8941 14.2984 76.198 14.7432 76.5958 15.062C76.9936 15.3753 77.4771 15.5319 78.0463 15.5319C78.6209 15.5319 79.1072 15.3725 79.505 15.0536C79.9029 14.7292 80.204 14.2816 80.4085 13.7111C80.6184 13.1349 80.7234 12.472 80.7234 11.7224C80.7234 10.9784 80.6212 10.3238 80.4167 9.75885C80.2123 9.19385 79.9112 8.75191 79.5133 8.43305C79.1155 8.11419 78.6265 7.95476 78.0463 7.95476C77.4716 7.95476 76.9854 8.1086 76.5875 8.41627C76.1952 8.72394 75.8941 9.16028 75.6841 9.72528C75.4741 10.2903 75.3691 10.956 75.3691 11.7224Z" fill="#C1C1C1"/>
<path d="M86.6827 18.1667V5.278H90.2136V18.1667H86.6827ZM88.4565 3.61656C87.9315 3.61656 87.4812 3.44035 87.1054 3.08792C86.7352 2.7299 86.5501 2.30196 86.5501 1.80409C86.5501 1.31181 86.7352 0.889457 87.1054 0.537031C87.4812 0.17901 87.9315 0 88.4565 0C88.9814 0 89.429 0.17901 89.7992 0.537031C90.1749 0.889457 90.3628 1.31181 90.3628 1.80409C90.3628 2.30196 90.1749 2.7299 89.7992 3.08792C89.429 3.44035 88.9814 3.61656 88.4565 3.61656Z" fill="#C1C1C1"/>
<path d="M98.7941 18.4185C97.4901 18.4185 96.3684 18.1388 95.429 17.5794C94.4952 17.0143 93.7769 16.2312 93.2741 15.2298C92.7768 14.2285 92.5281 13.0761 92.5281 11.7727C92.5281 10.4525 92.7795 9.29454 93.2823 8.29879C93.7907 7.29746 94.5118 6.51709 95.4456 5.95768C96.3794 5.39268 97.4901 5.11018 98.7775 5.11018C99.8882 5.11018 100.861 5.31436 101.695 5.72273C102.529 6.1311 103.19 6.70449 103.676 7.4429C104.162 8.18132 104.43 9.0484 104.48 10.0441H101.148C101.054 9.40083 100.805 8.88337 100.402 8.49179C100.004 8.09461 99.482 7.89602 98.8356 7.89602C98.2885 7.89602 97.8106 8.04706 97.4017 8.34914C96.9983 8.64563 96.6833 9.07917 96.4568 9.64976C96.2302 10.2204 96.117 10.9112 96.117 11.7224C96.117 12.5447 96.2275 13.244 96.4485 13.8201C96.6751 14.3963 96.9928 14.8355 97.4017 15.1375C97.8106 15.4396 98.2885 15.5907 98.8356 15.5907C99.2389 15.5907 99.6008 15.5067 99.9213 15.3389C100.247 15.1711 100.515 14.9278 100.725 14.6089C100.941 14.2844 101.082 13.8957 101.148 13.4425H104.48C104.425 14.4271 104.159 15.2942 103.684 16.0438C103.215 16.7878 102.565 17.3696 101.736 17.7891C100.908 18.2087 99.9269 18.4185 98.7941 18.4185Z" fill="#C1C1C1"/>
<path d="M109.94 14.4579L109.948 10.17H110.462L114.54 5.278H118.593L113.114 11.7559H112.277L109.94 14.4579ZM106.741 18.1667V0.981759H110.271V18.1667H106.741ZM114.697 18.1667L110.951 12.5531L113.305 10.0274L118.833 18.1667H114.697Z" fill="#C1C1C1"/>
<path fill-rule="evenodd" clip-rule="evenodd" d="M8.05321 15.2778C7.98001 17.4379 6.20577 19.1667 4.02778 19.1667C1.8033 19.1667 0 17.3634 0 15.1389C0 14.8545 0.0294698 14.577 0.0855229 14.3093C0.91721 6.26955 7.71255 0 15.9722 0C24.2319 0 31.0273 6.26957 31.8589 14.3094C31.915 14.5771 31.9444 14.8545 31.9444 15.1389C31.9444 17.3634 30.1411 19.1667 27.9167 19.1667C25.7387 19.1667 23.9644 17.4379 23.8912 15.2778H23.8781C23.6614 11.0992 20.2047 7.77778 15.9722 7.77778C11.7397 7.77778 8.28301 11.0992 8.06633 15.2778H8.05321Z" fill="#C1C1C1"/>
</svg>
