<svg width="18" height="18" viewBox="0 0 18 18" fill="none" xmlns="http://www.w3.org/2000/svg">
<circle cx="9" cy="9" r="9" fill="#393939"/>
<path d="M8.81128 13.143C10.2963 13.143 11.5173 12.285 11.5173 10.822C11.5173 9.733 10.7803 9.029 9.84528 8.798V8.743C10.7033 8.424 11.2423 7.775 11.2423 6.84C11.2423 5.509 10.2193 4.75 8.76728 4.75C7.83228 4.75 7.08428 5.157 6.44628 5.729L7.10628 6.521C7.56828 6.07 8.09628 5.773 8.72328 5.762C9.49328 5.773 9.96628 6.213 9.96628 6.928C9.96628 7.742 9.43828 8.347 7.84328 8.347V9.282C9.66928 9.282 10.2413 9.865 10.2413 10.756C10.2413 11.603 9.61428 12.109 8.70128 12.109C7.86528 12.109 7.26028 11.702 6.78728 11.218L6.17128 12.032C6.71028 12.637 7.53528 13.143 8.81128 13.143Z" fill="white"/>
</svg>
