<svg width="61" height="52" viewBox="0 0 61 52" fill="none" xmlns="http://www.w3.org/2000/svg">
<path d="M2.10058 43.567H4.52058V39.959H0.989578V40.872H3.43158V42.654H1.01158V46.46H1.69358C2.93658 46.46 4.04758 46.427 5.38958 46.196L5.29058 45.261C4.12458 45.459 3.14558 45.514 2.10058 45.525V43.567ZM6.08258 42.39H4.96058V43.325H6.08258V48.352H7.13858V39.134H6.08258V42.39ZM8.09558 38.914V48.847H9.17358V38.914H8.09558ZM14.4857 39.739H13.3527V41.367C13.3527 43.281 12.3187 45.184 10.7347 45.899L11.4057 46.845C12.6047 46.262 13.4847 45.085 13.9357 43.644C14.3867 44.986 15.2557 46.086 16.3997 46.625L17.0597 45.723C15.4977 45.019 14.4857 43.193 14.4857 41.367V39.739ZM17.8517 38.903V48.869H18.9957V38.903H17.8517ZM23.2739 40.828H24.6929V45.47C24.2199 45.492 23.7359 45.503 23.2739 45.525V40.828ZM25.7929 40.828H26.7829V39.915H21.1839V40.828H22.1739V45.525C21.7339 45.536 21.3049 45.536 20.9199 45.536L21.0409 46.471C22.8449 46.471 25.1879 46.438 27.3109 46.086L27.2449 45.25C26.7719 45.305 26.2879 45.36 25.7929 45.393V40.828ZM28.0039 38.914V48.858H29.1369V38.914H28.0039ZM34.944 43.545H32.524V40.674H34.944V43.545ZM36.055 39.761H31.402V44.458H36.055V39.761ZM33.668 45.481H32.524V48.66H39.212V47.736H33.668V45.481ZM38.816 41.862V38.903H37.683V46.185H38.816V42.797H40.224V41.862H38.816ZM49.1111 41.334H43.4571V40.091H49.0121V39.178H42.3351V42.247H49.1111V41.334ZM43.3801 47.032H49.0341V44.568H42.2361V45.437H47.9231V46.207H42.2581V48.748H49.3201V47.868H43.3801V47.032ZM41.1911 42.929V43.842H50.1781V42.929H41.1911ZM51.8603 39.959V40.883H55.4023C55.2043 43.171 53.9723 44.92 51.3653 46.174L51.9703 47.076C55.3803 45.426 56.5683 42.918 56.5683 39.959H51.8603ZM58.3613 38.914V48.847H59.4943V38.914H58.3613Z" fill="#393939"/>
<mask id="mask0_854_965" style="mask-type:alpha" maskUnits="userSpaceOnUse" x="14" y="0" width="30" height="30">
<rect x="14" width="30" height="30" fill="#D9D9D9"/>
</mask>
<g mask="url(#mask0_854_965)">
<path d="M28.999 20.938C29.2699 20.938 29.494 20.8497 29.6715 20.673C29.8482 20.4955 29.9365 20.2713 29.9365 20.0005V15.938H34.0303C34.2803 15.938 34.494 15.8492 34.6715 15.6717C34.8482 15.4951 34.9365 15.2713 34.9365 15.0005C34.9365 14.7297 34.8482 14.5055 34.6715 14.328C34.494 14.1513 34.2699 14.063 33.999 14.063H29.9365V9.96924C29.9365 9.71924 29.8482 9.50591 29.6715 9.32924C29.494 9.15174 29.2699 9.06299 28.999 9.06299C28.7282 9.06299 28.5044 9.15174 28.3278 9.32924C28.1503 9.50591 28.0615 9.72966 28.0615 10.0005V14.063H23.9678C23.7178 14.063 23.5044 14.1513 23.3278 14.328C23.1503 14.5055 23.0615 14.7297 23.0615 15.0005C23.0615 15.2713 23.1503 15.4951 23.3278 15.6717C23.5044 15.8492 23.7282 15.938 23.999 15.938H28.0615V20.0317C28.0615 20.2817 28.1503 20.4955 28.3278 20.673C28.5044 20.8497 28.7282 20.938 28.999 20.938ZM28.999 26.8755C27.3532 26.8755 25.8065 26.563 24.359 25.938C22.9107 25.313 21.6553 24.4692 20.5928 23.4067C19.5303 22.3442 18.6865 21.0888 18.0615 19.6405C17.4365 18.193 17.124 16.6463 17.124 15.0005C17.124 13.3547 17.4365 11.8076 18.0615 10.3592C18.6865 8.91174 19.5303 7.65674 20.5928 6.59424C21.6553 5.53174 22.9107 4.68799 24.359 4.06299C25.8065 3.43799 27.3532 3.12549 28.999 3.12549C30.6449 3.12549 32.1919 3.43799 33.6403 4.06299C35.0878 4.68799 36.3428 5.53174 37.4053 6.59424C38.4678 7.65674 39.3115 8.91174 39.9365 10.3592C40.5615 11.8076 40.874 13.3547 40.874 15.0005C40.874 16.6463 40.5615 18.193 39.9365 19.6405C39.3115 21.0888 38.4678 22.3442 37.4053 23.4067C36.3428 24.4692 35.0878 25.313 33.6403 25.938C32.1919 26.563 30.6449 26.8755 28.999 26.8755ZM28.999 25.0005C31.7699 25.0005 34.1294 24.0267 36.0778 22.0792C38.0253 20.1309 38.999 17.7713 38.999 15.0005C38.999 12.2297 38.0253 9.87007 36.0778 7.92174C34.1294 5.97424 31.7699 5.00049 28.999 5.00049C26.2282 5.00049 23.869 5.97424 21.9215 7.92174C19.9732 9.87007 18.999 12.2297 18.999 15.0005C18.999 17.7713 19.9732 20.1309 21.9215 22.0792C23.869 24.0267 26.2282 25.0005 28.999 25.0005Z" fill="#393939"/>
</g>
</svg>
