<?xml version="1.0" standalone="no"?>
<!DOCTYPE svg PUBLIC "-//W3C//DTD SVG 20010904//EN"
 "http://www.w3.org/TR/2001/REC-SVG-20010904/DTD/svg10.dtd">
<svg version="1.0" xmlns="http://www.w3.org/2000/svg"
 width="392.000000pt" height="236.000000pt" viewBox="0 0 392.000000 236.000000"
 preserveAspectRatio="xMidYMid meet">

<g transform="translate(0.000000,236.000000) scale(0.100000,-0.100000)"
fill="#000000" stroke="none">
<path d="M1772 2349 c-631 -61 -1185 -421 -1511 -981 -128 -222 -207 -457
-246 -741 -15 -109 -16 -141 -7 -204 40 -253 275 -442 523 -419 180 16 327
118 404 276 32 68 38 97 65 289 54 389 332 698 728 807 79 22 293 30 390 14
436 -70 766 -430 812 -887 17 -165 55 -259 144 -351 80 -84 189 -136 310 -148
247 -25 485 162 527 414 10 59 9 93 -5 199 -38 291 -123 545 -258 773 -388
657 -1122 1032 -1876 959z"/>
</g>
</svg>
