<svg width="51" height="51" viewBox="0 0 51 51" fill="none" xmlns="http://www.w3.org/2000/svg">
<path d="M19.4747 20.5627C20.6997 19.7071 21.915 19.0509 23.1205 18.5939C24.3261 18.137 25.6191 17.9085 26.9997 17.9085C28.3802 17.9085 29.6781 18.137 30.8934 18.5939C32.1087 19.0509 33.3288 19.7071 34.5538 20.5627C35.4094 19.5127 36.017 18.4529 36.3768 17.3835C36.7365 16.3141 36.9163 15.1863 36.9163 14.0002C36.9163 11.1807 35.9684 8.82308 34.0726 6.92725C32.1768 5.03141 29.8191 4.0835 26.9997 4.0835C24.1802 4.0835 21.8226 5.03141 19.9268 6.92725C18.0309 8.82308 17.083 11.1807 17.083 14.0002C17.083 15.1863 17.2677 16.3141 17.6372 17.3835C18.0066 18.4529 18.6191 19.5127 19.4747 20.5627ZM26.9997 14.8752C25.8719 14.8752 24.924 14.4911 24.1559 13.7231C23.3879 12.955 23.0038 12.0071 23.0038 10.8793C23.0038 9.75155 23.3879 8.80363 24.1559 8.03558C24.924 7.26752 25.8719 6.8835 26.9997 6.8835C28.1275 6.8835 29.0754 7.26752 29.8434 8.03558C30.6115 8.80363 30.9955 9.75155 30.9955 10.8793C30.9955 12.0071 30.6115 12.955 29.8434 13.7231C29.0754 14.4911 28.1275 14.8752 26.9997 14.8752ZM26.9997 25.6668C25.4052 25.6668 23.8983 25.3606 22.4788 24.7481C21.0594 24.1356 19.8198 23.2995 18.7601 22.2397C17.7004 21.18 16.8643 19.9404 16.2518 18.521C15.6393 17.1016 15.333 15.5946 15.333 14.0002C15.333 12.3863 15.6393 10.8745 16.2518 9.46475C16.8643 8.05502 17.7004 6.8203 18.7601 5.76058C19.8198 4.70086 21.0594 3.86475 22.4788 3.25225C23.8983 2.63975 25.4052 2.3335 26.9997 2.3335C28.6136 2.3335 30.1254 2.63975 31.5351 3.25225C32.9448 3.86475 34.1795 4.70086 35.2393 5.76058C36.299 6.8203 37.1351 8.05502 37.7476 9.46475C38.3601 10.8745 38.6663 12.3863 38.6663 14.0002C38.6663 15.5946 38.3601 17.1016 37.7476 18.521C37.1351 19.9404 36.299 21.18 35.2393 22.2397C34.1795 23.2995 32.9448 24.1356 31.5351 24.7481C30.1254 25.3606 28.6136 25.6668 26.9997 25.6668ZM26.9997 23.9168C28.0691 23.9168 29.1143 23.7613 30.1351 23.4502C31.1559 23.1391 32.1622 22.5946 33.1538 21.8168C32.1622 21.1168 31.1511 20.5821 30.1205 20.2127C29.09 19.8432 28.0497 19.6585 26.9997 19.6585C25.9497 19.6585 24.9094 19.8432 23.8788 20.2127C22.8483 20.5821 21.8372 21.1168 20.8455 21.8168C21.8372 22.5946 22.8434 23.1391 23.8643 23.4502C24.8851 23.7613 25.9302 23.9168 26.9997 23.9168ZM26.9997 13.1252C27.6608 13.1252 28.2004 12.9161 28.6184 12.4981C29.0365 12.08 29.2455 11.5404 29.2455 10.8793C29.2455 10.2182 29.0365 9.67863 28.6184 9.26058C28.2004 8.84252 27.6608 8.6335 26.9997 8.6335C26.3386 8.6335 25.799 8.84252 25.3809 9.26058C24.9629 9.67863 24.7538 10.2182 24.7538 10.8793C24.7538 11.5404 24.9629 12.08 25.3809 12.4981C25.799 12.9161 26.3386 13.1252 26.9997 13.1252Z" fill="#393939"/>
<path d="M2.22615 39.784H4.63515V44.47H2.22615V39.784ZM1.10415 45.372H5.75715V38.882H1.10415V45.372ZM10.0031 41.797H8.45215V37.914H7.31915V47.858H8.45215V42.732H10.0031V41.797ZM17.9113 37.903V47.869H19.0553V37.903H17.9113ZM13.7643 38.64C12.2903 38.64 11.2123 40.004 11.2123 42.138C11.2123 44.294 12.2903 45.647 13.7643 45.647C15.2493 45.647 16.3273 44.294 16.3273 42.138C16.3273 40.004 15.2493 38.64 13.7643 38.64ZM13.7643 39.663C14.6333 39.663 15.2383 40.598 15.2383 42.138C15.2383 43.7 14.6333 44.635 13.7643 44.635C12.9063 44.635 12.3013 43.7 12.3013 42.138C12.3013 40.598 12.9063 39.663 13.7643 39.663ZM22.8384 40.026H23.8394V44.481C23.4984 44.503 23.1684 44.514 22.8384 44.525V40.026ZM24.8734 40.026H25.6104V39.113H21.0894V40.026H21.8044V44.547C21.4744 44.547 21.1664 44.547 20.8914 44.547L21.0234 45.482C22.2774 45.482 24.3234 45.438 25.8744 45.13L25.7974 44.305C25.5114 44.349 25.1924 44.382 24.8734 44.415V40.026ZM26.5124 41.621H25.3354V42.622H26.5124V47.352H27.5794V38.134H26.5124V41.621ZM28.4594 37.914V47.847H29.5484V37.914H28.4594ZM38.1496 37.903V47.869H39.2936V37.903H38.1496ZM34.0026 38.64C32.5286 38.64 31.4506 40.004 31.4506 42.138C31.4506 44.294 32.5286 45.647 34.0026 45.647C35.4876 45.647 36.5656 44.294 36.5656 42.138C36.5656 40.004 35.4876 38.64 34.0026 38.64ZM34.0026 39.663C34.8716 39.663 35.4766 40.598 35.4766 42.138C35.4766 43.7 34.8716 44.635 34.0026 44.635C33.1446 44.635 32.5396 43.7 32.5396 42.138C32.5396 40.598 33.1446 39.663 34.0026 39.663ZM44.9027 39.839H47.1137V38.904H41.5477V39.839H43.7587V40.785C43.7587 42.49 42.7357 44.338 41.1957 45.053L41.8447 45.955C43.0107 45.394 43.9017 44.217 44.3417 42.831C44.8037 44.118 45.6947 45.196 46.8497 45.702L47.4767 44.811C45.9257 44.151 44.9027 42.435 44.9027 40.785V39.839ZM48.2687 37.914V47.847H49.4127V37.914H48.2687Z" fill="#393939"/>
</svg>
