<svg width="19" height="19" viewBox="0 0 19 19" fill="none" xmlns="http://www.w3.org/2000/svg">
<mask id="mask0_133_2577" style="mask-type:alpha" maskUnits="userSpaceOnUse" x="0" y="0" width="19" height="19">
<rect width="19" height="19" fill="#919191"/>
</mask>
<g mask="url(#mask0_133_2577)">
<path d="M14.7646 16.3083L10.4302 11.9937C10.0344 12.2708 9.58258 12.4951 9.07486 12.6666C8.56661 12.8382 8.01561 12.9239 7.42186 12.9239C5.9177 12.9239 4.64127 12.3993 3.59257 11.3501C2.54335 10.3014 2.01874 9.02497 2.01874 7.5208C2.01874 6.01663 2.54335 4.73994 3.59257 3.69072C4.64127 2.64202 5.9177 2.11768 7.42186 2.11768C8.93922 2.11768 10.2191 2.64202 11.2614 3.69072C12.3038 4.73994 12.825 6.01663 12.825 7.5208C12.825 8.11455 12.7424 8.66212 12.5772 9.16351C12.4125 9.6649 12.1851 10.1069 11.8948 10.4896L16.2489 14.8635C16.4469 15.0614 16.5458 15.3024 16.5458 15.5863C16.5458 15.8697 16.4403 16.1104 16.2292 16.3083C16.0444 16.5062 15.8038 16.6052 15.5072 16.6052C15.21 16.6052 14.9625 16.5062 14.7646 16.3083ZM7.42186 10.826C8.34547 10.826 9.12738 10.5059 9.76757 9.86572C10.4072 9.22605 10.7271 8.44441 10.7271 7.5208C10.7271 6.59719 10.4072 5.81529 9.76757 5.17509C9.12738 4.53543 8.34547 4.21559 7.42186 4.21559C6.51145 4.21559 5.73297 4.53543 5.08645 5.17509C4.43992 5.81529 4.11665 6.59719 4.11665 7.5208C4.11665 8.44441 4.43992 9.22605 5.08645 9.86572C5.73297 10.5059 6.51145 10.826 7.42186 10.826Z" fill="#919191"/>
</g>
</svg>
