<svg width="40" height="44" viewBox="0 0 40 44" fill="none" xmlns="http://www.w3.org/2000/svg">
<path d="M1.41672 34.508V35.432H4.70572C4.50772 36.961 3.16572 38.16 0.888719 38.776L1.35072 39.678C4.22172 38.864 5.92672 37.082 5.92672 34.508H1.41672ZM3.69372 40.844H7.93972V42.813H3.69372V40.844ZM2.58272 43.726H9.05072V39.942H2.58272V43.726ZM7.91772 33.903V36.378H5.94872V37.313H7.91772V39.535H9.05072V33.903H7.91772ZM15.9139 38.501C14.6269 37.984 13.9889 36.862 13.9889 35.751V34.486H12.8889V35.751C12.8889 36.884 12.2179 38.149 10.8869 38.754L11.4919 39.623C12.4379 39.205 13.0869 38.435 13.4499 37.522C13.8129 38.325 14.4289 38.996 15.3089 39.359L15.9139 38.501ZM12.6139 41.339H18.2129V43.858H19.3459V40.426H12.6139V41.339ZM18.2679 33.914V36.422H17.2229V34.079H16.1559V39.876H17.2229V37.346H18.2679V39.931H19.3459V33.914H18.2679ZM23.954 40.778C23.151 40.778 22.568 40.228 22.568 39.392C22.568 38.556 23.151 38.006 23.954 38.006C24.757 38.006 25.34 38.556 25.34 39.392C25.34 40.228 24.757 40.778 23.954 40.778ZM23.954 37.071C22.524 37.071 21.49 38.039 21.49 39.392C21.49 40.756 22.524 41.713 23.954 41.713C25.373 41.713 26.418 40.756 26.418 39.392C26.418 38.039 25.373 37.071 23.954 37.071ZM24.504 34.068H23.371V35.443H21.006V36.367H26.825V35.443H24.504V34.068ZM30.301 37.907H28.772V33.914H27.628V43.858H28.772V38.853H30.301V37.907ZM31.7411 34.959V35.883H35.2831C35.0851 38.171 33.8531 39.92 31.2461 41.174L31.8511 42.076C35.2611 40.426 36.4491 37.918 36.4491 34.959H31.7411ZM38.2421 33.914V43.847H39.3751V33.914H38.2421Z" fill="#999999"/>
<mask id="mask0_0_1" style="mask-type:alpha" maskUnits="userSpaceOnUse" x="6" y="-4" width="29" height="29">
<rect x="6" y="-4" width="29" height="29" fill="#D9D9D9"/>
</mask>
<g mask="url(#mask0_0_1)">
<path d="M28.9886 20.2271L22.0105 13.2792C21.4063 13.7826 20.7115 14.1753 19.9261 14.4573C19.1407 14.7392 18.3351 14.8802 17.5094 14.8802C15.4351 14.8802 13.6831 14.1653 12.2532 12.7354C10.8233 11.3056 10.1084 9.55347 10.1084 7.47917C10.1084 5.425 10.8233 3.67775 12.2532 2.23742C13.6831 0.797889 15.4351 0.078125 17.5094 0.078125C19.5636 0.078125 21.3056 0.793056 22.7355 2.22292C24.1653 3.65278 24.8803 5.40486 24.8803 7.47917C24.8803 8.34514 24.7393 9.17083 24.4574 9.95625C24.1754 10.7417 23.7928 11.4264 23.3094 12.0104L30.2876 18.9885C30.4487 19.1497 30.5292 19.351 30.5292 19.5927C30.5292 19.8344 30.4386 20.0458 30.2574 20.2271C30.0761 20.4083 29.8598 20.499 29.6085 20.499C29.3563 20.499 29.1497 20.4083 28.9886 20.2271ZM17.5094 13.0677C19.0601 13.0677 20.3744 12.524 21.4522 11.4365C22.5293 10.349 23.0678 9.02986 23.0678 7.47917C23.0678 5.92847 22.5293 4.60937 21.4522 3.52187C20.3744 2.43437 19.0601 1.89062 17.5094 1.89062C15.9386 1.89062 14.6147 2.43437 13.5376 3.52187C12.4598 4.60937 11.9209 5.92847 11.9209 7.47917C11.9209 9.02986 12.4598 10.349 13.5376 11.4365C14.6147 12.524 15.9386 13.0677 17.5094 13.0677Z" fill="#999999"/>
</g>
</svg>
