<svg width="52" height="76" viewBox="0 0 52 76" fill="none" xmlns="http://www.w3.org/2000/svg">
<path d="M14.7537 65.389H9.09972V64.179H14.6547V63.266H7.97772V66.291H14.7537V65.389ZM15.8097 67.875V66.962H6.80072V67.875H10.7387V68.7H7.86772V69.547H13.5657V70.273H7.90072V72.748H14.9627V71.879H9.02272V71.076H14.6767V68.7H11.8717V67.875H15.8097ZM18.4049 67.391H21.7269V63.794H17.2719V64.707H20.6159V66.478H17.2939V70.515H18.0749C19.8129 70.515 21.0999 70.46 22.5849 70.207L22.4859 69.283C21.1219 69.514 19.9339 69.569 18.4049 69.58V67.391ZM24.0369 62.892V66.621H22.2989V67.556H24.0369V72.858H25.1699V62.892H24.0369ZM29.195 66.159H33.903V67.787H29.195V66.159ZM32.11 70.702V68.7H35.025V63.574H33.903V65.246H29.195V63.574H28.073V68.7H30.977V70.702H27.061V71.637H36.059V70.702H32.11ZM37.7411 63.959V64.883H41.2831C41.0851 67.171 39.8531 68.92 37.2461 70.174L37.8511 71.076C41.2611 69.426 42.4491 66.918 42.4491 63.959H37.7411ZM44.2421 62.914V72.847H45.3751V62.914H44.2421Z" fill="#494949"/>
<rect x="1" y="1" width="50" height="50" rx="25" fill="#E9E9E9" stroke="#E2E2E2"/>
<mask id="mask0_854_950" style="mask-type:alpha" maskUnits="userSpaceOnUse" x="11" y="10" width="30" height="30">
<rect x="11" y="10" width="30" height="30" fill="#D9D9D9"/>
</mask>
<g mask="url(#mask0_854_950)">
<path d="M19.1875 25.5L16.375 24.3125C16 24.1667 15.7763 23.8958 15.7038 23.5C15.6304 23.1042 15.7396 22.7604 16.0313 22.4688L19.7188 18.75C19.9896 18.5 20.3021 18.3175 20.6562 18.2025C21.0104 18.0883 21.3854 18.0729 21.7812 18.1562L23.4688 18.5C22.4479 19.7292 21.625 20.8438 21 21.8438C20.375 22.8438 19.7708 24.0625 19.1875 25.5ZM36.1875 13.875C36.3333 13.875 36.4792 13.9113 36.625 13.9838C36.7708 14.0571 36.9062 14.1563 37.0312 14.2813C37.1354 14.3854 37.2242 14.5104 37.2975 14.6562C37.37 14.8021 37.4062 14.9479 37.4062 15.0937C37.4271 17.0312 37.0158 18.9321 36.1725 20.7963C35.3283 22.6613 34.1354 24.3646 32.5938 25.9062C31.5521 26.9479 30.5417 27.7917 29.5625 28.4375C28.5833 29.0833 27.4271 29.7083 26.0938 30.3125C25.8646 30.4167 25.62 30.4638 25.36 30.4538C25.0992 30.4429 24.875 30.3438 24.6875 30.1562L21.125 26.625C20.9375 26.4167 20.8438 26.1875 20.8438 25.9375C20.8438 25.6875 20.8958 25.4375 21 25.1875C21.5833 23.875 22.1979 22.7238 22.8438 21.7338C23.4896 20.7446 24.3333 19.7292 25.375 18.6875C26.9167 17.1458 28.62 15.9583 30.485 15.125C32.3492 14.2917 34.25 13.875 36.1875 13.875ZM28.7812 22.5C29.2188 22.9167 29.7396 23.125 30.3438 23.125C30.9479 23.125 31.4688 22.9167 31.9062 22.5C32.3229 22.0625 32.5312 21.5417 32.5312 20.9375C32.5312 20.3333 32.3229 19.8229 31.9062 19.4062C31.4688 18.9688 30.9479 18.75 30.3438 18.75C29.7396 18.75 29.2188 18.9688 28.7812 19.4062C28.3646 19.8229 28.1562 20.3333 28.1562 20.9375C28.1562 21.5417 28.3646 22.0625 28.7812 22.5ZM25.75 32.125C27.2083 31.5208 28.4429 30.9062 29.4538 30.2812C30.4637 29.6562 31.5729 28.8333 32.7812 27.8125L33.125 29.5C33.2083 29.875 33.1929 30.245 33.0788 30.61C32.9637 30.9742 32.7708 31.2917 32.5 31.5625L28.8125 35.2812C28.5208 35.5521 28.1771 35.6508 27.7813 35.5775C27.3854 35.505 27.1146 35.2812 26.9687 34.9062L25.75 32.125ZM16.75 30.125C17.3542 29.5208 18.0938 29.2138 18.9688 29.2038C19.8438 29.1929 20.5833 29.5 21.1875 30.125C21.7917 30.7292 22.0938 31.4633 22.0938 32.3275C22.0938 33.1925 21.7917 33.9375 21.1875 34.5625C20.7083 35.0208 19.9321 35.4217 18.8588 35.765C17.7863 36.1092 16.4062 36.3854 14.7188 36.5938C14.9062 34.9062 15.1721 33.5208 15.5163 32.4375C15.8596 31.3542 16.2708 30.5833 16.75 30.125Z" fill="#393939"/>
</g>
</svg>
