<svg width="64" height="76" viewBox="0 0 64 76" fill="none" xmlns="http://www.w3.org/2000/svg">
<path d="M2.36523 67.567H4.78523V63.959H1.25423V64.872H3.69623V66.654H1.27623V70.46H1.95823C3.20123 70.46 4.31223 70.427 5.65423 70.196L5.55523 69.261C4.38923 69.459 3.41023 69.514 2.36523 69.525V67.567ZM6.34723 66.39H5.22523V67.325H6.34723V72.352H7.40323V63.134H6.34723V66.39ZM8.36023 62.914V72.847H9.43823V62.914H8.36023ZM14.7504 63.739H13.6174V65.367C13.6174 67.281 12.5834 69.184 10.9994 69.899L11.6704 70.845C12.8694 70.262 13.7494 69.085 14.2004 67.644C14.6514 68.986 15.5204 70.086 16.6644 70.625L17.3244 69.723C15.7624 69.019 14.7504 67.193 14.7504 65.367V63.739ZM18.1164 62.903V72.869H19.2604V62.903H18.1164ZM23.5385 64.828H24.9575V69.47C24.4845 69.492 24.0005 69.503 23.5385 69.525V64.828ZM26.0575 64.828H27.0475V63.915H21.4485V64.828H22.4385V69.525C21.9985 69.536 21.5695 69.536 21.1845 69.536L21.3055 70.471C23.1095 70.471 25.4525 70.438 27.5755 70.086L27.5095 69.25C27.0365 69.305 26.5525 69.36 26.0575 69.393V64.828ZM28.2685 62.914V72.858H29.4015V62.914H28.2685ZM37.6794 67.545H35.2594V64.674H37.6794V67.545ZM38.7904 63.761H34.1374V68.458H38.7904V63.761ZM36.4034 69.481H35.2594V72.66H41.9474V71.736H36.4034V69.481ZM41.5514 65.862V62.903H40.4184V70.185H41.5514V66.797H42.9594V65.862H41.5514ZM51.8465 65.334H46.1925V64.091H51.7475V63.178H45.0705V66.247H51.8465V65.334ZM46.1155 71.032H51.7695V68.568H44.9715V69.437H50.6585V70.207H44.9935V72.748H52.0555V71.868H46.1155V71.032ZM43.9265 66.929V67.842H52.9135V66.929H43.9265ZM54.5956 63.959V64.883H58.1376C57.9396 67.171 56.7076 68.92 54.1006 70.174L54.7056 71.076C58.1156 69.426 59.3036 66.918 59.3036 63.959H54.5956ZM61.0966 62.914V72.847H62.2296V62.914H61.0966Z" fill="#494949"/>
<rect x="7" y="1" width="50" height="50" rx="25" fill="#E9E9E9" stroke="#E2E2E2"/>
<path d="M22 27H42" stroke="#393939" stroke-width="3" stroke-linecap="round"/>
<path d="M32 37L32 17" stroke="#393939" stroke-width="3" stroke-linecap="round"/>
</svg>
