<svg width="66" height="76" viewBox="0 0 66 76" fill="none" xmlns="http://www.w3.org/2000/svg">
<path d="M4.29688 64.828H6.45288V63.904H1.00788V64.828H3.15288V65.631C3.15288 67.424 2.15188 69.316 0.622875 70.053L1.29388 70.955C2.44888 70.361 3.30688 69.151 3.74688 67.743C4.18688 69.074 5.03388 70.196 6.16688 70.746L6.82688 69.855C5.28688 69.14 4.29688 67.314 4.29688 65.631V64.828ZM7.83888 62.903V66.456H5.88088V67.391H7.83888V72.858H8.97188V62.903H7.83888ZM16.682 67.589C15.164 67.105 14.339 65.95 14.339 64.718V64.531H16.418V63.618H11.083V64.531H13.195V64.729C13.195 66.082 12.326 67.358 10.764 67.897L11.336 68.788C12.524 68.381 13.36 67.534 13.8 66.478C14.229 67.402 15.021 68.117 16.132 68.469L16.682 67.589ZM15.406 71.956C14.02 71.956 13.217 71.604 13.217 70.966C13.217 70.317 14.02 69.976 15.406 69.976C16.792 69.976 17.595 70.317 17.595 70.966C17.595 71.604 16.792 71.956 15.406 71.956ZM15.406 69.085C13.36 69.085 12.095 69.778 12.095 70.966C12.095 72.143 13.36 72.847 15.406 72.847C17.452 72.847 18.717 72.143 18.717 70.966C18.717 69.778 17.452 69.085 15.406 69.085ZM18.607 65.334V62.914H17.474V68.854H18.607V66.269H20.015V65.334H18.607ZM26.8452 64.047H24.4802V62.914H23.3472V64.047H20.9822V64.949H26.8452V64.047ZM22.5882 67.292C22.5882 66.665 23.1272 66.291 23.9082 66.291C24.7002 66.291 25.2392 66.665 25.2392 67.292C25.2392 67.919 24.7002 68.293 23.9082 68.293C23.1272 68.293 22.5882 67.919 22.5882 67.292ZM26.3172 67.292C26.3172 66.17 25.3382 65.411 23.9082 65.411C22.4892 65.411 21.4992 66.17 21.4992 67.292C21.4992 68.425 22.4892 69.173 23.9082 69.173C25.3382 69.173 26.3172 68.425 26.3172 67.292ZM23.5782 69.789H22.4342V72.66H29.1222V71.736H23.5782V69.789ZM28.7262 66.082V62.914H27.5932V70.361H28.7262V67.017H30.1342V66.082H28.7262ZM40.656 69.58H41.789V62.914H40.656V65.631H38.698V66.566H40.656V69.58ZM34.188 63.684V64.597H37.444C37.257 66.192 35.992 67.446 33.704 68.161L34.177 69.041C37.081 68.117 38.654 66.313 38.654 63.684H34.188ZM39.083 68.788H37.95V69.173C37.95 70.482 36.641 71.604 34.727 71.934L35.167 72.825C36.696 72.55 37.917 71.791 38.522 70.724C39.116 71.78 40.326 72.528 41.844 72.803L42.295 71.912C40.381 71.593 39.083 70.471 39.083 69.173V68.788ZM48.2848 66.159H52.9928V67.787H48.2848V66.159ZM51.1998 70.702V68.7H54.1148V63.574H52.9928V65.246H48.2848V63.574H47.1628V68.7H50.0668V70.702H46.1508V71.637H55.1488V70.702H51.1998ZM56.831 63.959V64.883H60.373C60.175 67.171 58.943 68.92 56.336 70.174L56.941 71.076C60.351 69.426 61.539 66.918 61.539 63.959H56.831ZM63.332 62.914V72.847H64.465V62.914H63.332Z" fill="#494949"/>
<rect x="8" y="1" width="50" height="50" rx="25" fill="#E9E9E9" stroke="#E2E2E2"/>
<mask id="mask0_854_952" style="mask-type:alpha" maskUnits="userSpaceOnUse" x="17" y="9" width="33" height="33">
<rect x="17" y="9" width="33" height="33" fill="#D9D9D9"/>
</mask>
<g mask="url(#mask0_854_952)">
<path d="M25.9375 35.8125C24.0354 35.8125 22.4138 35.1534 21.0727 33.8353C19.7326 32.518 19.0625 30.9083 19.0625 29.0063C19.0625 27.3104 19.601 25.8094 20.6781 24.5031C21.7552 23.1969 23.1302 22.4292 24.8031 22.2C25.2385 20.1375 26.2698 18.4531 27.8969 17.1469C29.524 15.8406 31.3917 15.1875 33.5 15.1875C35.9979 15.1875 38.1122 16.0524 39.8429 17.7821C41.5726 19.5128 42.4375 21.6271 42.4375 24.125V24.8125H42.85C44.3167 24.9271 45.5313 25.5115 46.4938 26.5656C47.4563 27.6198 47.9375 28.8687 47.9375 30.3125C47.9375 31.8479 47.4045 33.1482 46.3384 34.2134C45.2732 35.2795 43.9729 35.8125 42.4375 35.8125H25.9375Z" fill="#393939"/>
</g>
</svg>
