<svg width="18" height="17" viewBox="0 0 18 17" fill="none" xmlns="http://www.w3.org/2000/svg">
<path fill-rule="evenodd" clip-rule="evenodd" d="M9.16544 2.46811C5.21293 2.46811 2.43806 4.90737 2.43806 8.04304C2.43806 9.70527 3.0096 11.1408 4.3942 12.2164L4.79248 12.6342V13.29C4.51595 13.9077 3.85028 14.3445 2.98532 14.7304C2.62543 14.8909 2.41544 15.0354 2.29795 15.1424C2.25149 15.1848 2.22147 15.2194 2.20238 15.2452C2.2321 15.2491 2.2694 15.2528 2.3154 15.2552C2.53953 15.2666 2.87419 15.2403 3.31693 15.1441C4.19777 14.9525 5.07048 14.4197 6.47421 13.618L7.1469 13.29L7.48324 13.2497C8.22282 13.29 8.57242 13.2497 9.16544 13.2497C13.118 13.2497 15.8919 11.0967 15.8919 7.96106C15.8919 4.82539 13.118 2.46811 9.16544 2.46811ZM0.420927 7.96106C0.420927 3.76159 4.42492 0.500488 9.16544 0.500488C13.906 0.500488 17.91 3.76159 17.91 7.96106C17.91 12.1605 13.906 15.4216 9.16544 15.4216C8.56726 15.4216 7.98223 15.3703 7.41636 15.2724C6.00894 16.0448 4.74034 16.5178 3.71208 16.7414C3.1643 16.8605 2.65764 16.9148 2.22027 16.8924C1.81653 16.8718 1.31927 16.7782 0.957806 16.4557C0.616146 16.1509 0.279752 15.5757 0.480136 14.8769C0.67366 14.202 1.29898 13.6668 2.2339 13.2497C2.42519 13.1644 2.57313 13.0714 2.68876 12.9751C1.29022 11.6605 0.420927 9.9045 0.420927 7.96106Z" fill="#393939"/>
</svg>
