<svg width="17" height="17" viewBox="0 0 17 17" fill="none" xmlns="http://www.w3.org/2000/svg">
<path fill-rule="evenodd" clip-rule="evenodd" d="M8.29541 2.80002C4.61777 2.80002 2.03587 5.06964 2.03587 7.98725C2.03587 9.53388 2.56767 10.8695 3.85597 11.8704L4.22655 12.2591V12.8693C3.96926 13.444 3.34988 13.8505 2.54507 14.2095C2.21021 14.3589 2.01482 14.4933 1.90551 14.5929C1.86228 14.6323 1.83434 14.6646 1.81658 14.6885C1.84424 14.6922 1.87894 14.6956 1.92175 14.6978C2.13029 14.7085 2.44167 14.684 2.85362 14.5944C3.67321 14.4162 4.48523 13.9204 5.79133 13.1745L6.41724 12.8693L6.73019 12.8319C7.41834 12.8693 7.74362 12.8319 8.29541 12.8319C11.973 12.8319 14.5541 10.8286 14.5541 7.91097C14.5541 4.99337 11.973 2.80002 8.29541 2.80002ZM0.159021 7.91097C0.159021 4.00355 3.88456 0.969238 8.29541 0.969238C12.7063 0.969238 16.4318 4.00355 16.4318 7.91097C16.4318 11.8184 12.7063 14.8527 8.29541 14.8527C7.73882 14.8527 7.19448 14.805 6.66796 14.7138C5.35842 15.4325 4.17804 15.8726 3.22129 16.0806C2.71161 16.1915 2.24018 16.242 1.83323 16.2212C1.45757 16.202 0.994888 16.115 0.658562 15.8149C0.340663 15.5313 0.0276636 14.9961 0.214112 14.3458C0.394178 13.7178 0.976012 13.2199 1.84591 12.8319C2.0239 12.7525 2.16155 12.6659 2.26914 12.5763C0.967858 11.3531 0.159021 9.71925 0.159021 7.91097Z" fill="#393939"/>
</svg>
