<svg width="30" height="30" viewBox="0 0 30 30" fill="none" xmlns="http://www.w3.org/2000/svg">
<mask id="mask0_952_1158" style="mask-type:alpha" maskUnits="userSpaceOnUse" x="0" y="0" width="30" height="30">
<rect x="30" y="30" width="30" height="30" transform="rotate(-180 30 30)" fill="#D9D9D9"/>
</mask>
<g mask="url(#mask0_952_1158)">
<path d="M15.9375 16.5312L17.5938 18.1875C17.7813 18.3542 18.005 18.4325 18.265 18.4225C18.5258 18.4117 18.7396 18.3229 18.9063 18.1562C19.0938 17.9687 19.1875 17.75 19.1875 17.5C19.1875 17.25 19.0938 17.0312 18.9063 16.8437L15.7813 13.7187C15.5729 13.5104 15.3125 13.4062 15 13.4062C14.6875 13.4062 14.4271 13.5104 14.2188 13.7187L11.0625 16.875C10.8958 17.0417 10.8175 17.2554 10.8275 17.5162C10.8383 17.7762 10.9271 17.9896 11.0938 18.1562C11.2813 18.3437 11.5 18.4375 11.75 18.4375C12 18.4375 12.2188 18.3437 12.4063 18.1562L14.0625 16.5312L14.0625 21.2812C14.0625 21.5312 14.1508 21.7446 14.3275 21.9212C14.505 22.0987 14.7292 22.1875 15 22.1875C15.2708 22.1875 15.4946 22.0987 15.6713 21.9212C15.8488 21.7446 15.9375 21.5208 15.9375 21.25L15.9375 16.5312ZM20 9.0625L9.96875 9.0625C9.71875 9.0625 9.505 9.15083 9.3275 9.3275C9.15083 9.505 9.0625 9.72917 9.0625 10C9.0625 10.2708 9.15083 10.495 9.3275 10.6725C9.505 10.8492 9.72917 10.9375 10 10.9375L20.0313 10.9375C20.2813 10.9375 20.4946 10.8492 20.6713 10.6725C20.8488 10.495 20.9375 10.2708 20.9375 10C20.9375 9.72917 20.8488 9.505 20.6713 9.3275C20.4946 9.15083 20.2708 9.0625 20 9.0625ZM15 3.125C16.6458 3.125 18.1925 3.4375 19.64 4.0625C21.0883 4.6875 22.3438 5.53125 23.4063 6.59375C24.4688 7.65625 25.3125 8.91167 25.9375 10.36C26.5625 11.8075 26.875 13.3542 26.875 15C26.875 16.6458 26.5625 18.1929 25.9375 19.6413C25.3125 21.0888 24.4688 22.3437 23.4063 23.4062C22.3438 24.4687 21.0883 25.3125 19.64 25.9375C18.1925 26.5625 16.6458 26.875 15 26.875C13.3542 26.875 11.8071 26.5625 10.3587 25.9375C8.91125 25.3125 7.65625 24.4687 6.59375 23.4062C5.53125 22.3437 4.6875 21.0887 4.0625 19.6412C3.4375 18.1929 3.125 16.6458 3.125 15C3.125 13.3542 3.4375 11.8075 4.0625 10.36C4.6875 8.91166 5.53125 7.65625 6.59375 6.59375C7.65625 5.53125 8.91125 4.6875 10.3588 4.0625C11.8071 3.4375 13.3542 3.125 15 3.125Z" fill="#393939"/>
</g>
</svg>
